<svg width="370" height="374" viewBox="0 0 370 374" fill="none" xmlns="http://www.w3.org/2000/svg">
<path d="M325.349 276.845L312.174 284.161V89.9674L325.349 97.2813V276.845ZM310.32 299.347L182.691 371.27L55.0638 299.347V287.31L182.243 357.924L182.693 358.04L183.142 357.924L310.32 287.31V299.347ZM40.0355 276.845V97.2813L53.2108 89.9674V284.161L40.0355 276.845ZM310.32 88.939V285.19L182.693 356.054L55.0638 285.19V88.939L182.693 18.0744L310.32 88.939ZM55.0638 74.781L182.691 2.86026L310.32 74.781V86.8188L183.142 16.2069C182.863 16.051 182.522 16.051 182.243 16.2069L55.0638 86.8188V74.781ZM326.725 95.9271L312.174 87.8473V74.2402C312.174 73.9046 311.992 73.5966 311.702 73.4327L183.145 0.990875C182.863 0.830994 182.52 0.830994 182.237 0.990875L53.6828 73.4327C53.3906 73.5966 53.2108 73.9046 53.2108 74.2402V87.8473L38.66 95.9271C38.3652 96.0909 38.1832 96.4009 38.1832 96.7365V277.392C38.1832 277.728 38.3652 278.038 38.66 278.201L53.2108 286.281V299.888C53.2108 300.222 53.3906 300.532 53.6828 300.696L182.237 373.14L182.691 373.258L183.145 373.14L311.702 300.696C311.992 300.532 312.174 300.222 312.174 299.888V286.281L326.725 278.201C327.019 278.038 327.201 277.728 327.201 277.392V96.7365C327.201 96.4009 327.019 96.0909 326.725 95.9271Z" fill="#BA8E34"/>
<path d="M72.8589 320.436C69.9533 318.513 66.0808 318.667 63.2877 320.73C66.5711 319.846 69.5221 319.883 72.8589 320.436ZM97.0178 350.27C97.8891 348.616 98.4715 347.009 99.4893 345.384C100.508 343.76 102.367 342.897 104.047 342.009C99.5395 343.088 97.0425 345.489 97.0178 350.27ZM106.828 342.028C106.554 342.038 106.274 341.963 106.001 342.04C102.823 342.942 100.512 344.344 99.0221 347.366C98.2502 348.932 97.654 350.529 96.9276 352.136L97.1297 352.674C97.5569 352.035 98.0481 351.358 98.4206 350.691C100.551 346.873 102.876 344.018 106.828 342.028ZM60.2109 322.831C62.9592 322.592 65.6034 321.994 68.3571 321.688C71.1115 321.38 73.9253 322.175 76.6441 322.614C71.9226 319.187 65.072 320.209 60.2109 322.831ZM61.0276 214.792C61.1401 211.614 61.1448 208.385 61.4856 205.23C61.8265 202.074 62.5036 199.026 63.0364 195.911C59.3581 202.376 58.2986 207.759 61.0276 214.792ZM22.0015 272.8C24.1427 276.794 25.5739 280.665 26.8809 285.01C26.938 285.199 27.194 285.458 27.3429 285.622C28.0916 282.817 28.9561 280.274 27.2975 277.581C26.0759 275.599 23.8498 274.216 22.0015 272.8ZM76.4568 336.623C76.5093 336.438 76.2926 336.31 76.2286 336.183L75.9009 335.911C73.067 334.9 70.6535 334.724 67.7277 335.715C67.006 335.958 66.4284 336.659 66.288 337.48C66.8664 337.794 67.4316 338.268 68.091 338.39C69.4242 338.639 70.7437 338.779 72.0924 338.757C73.0393 338.742 74.0378 338.426 74.8969 338.151C75.755 337.877 76.2294 337.427 76.4568 336.623ZM21.9975 206.01C22.6106 204.587 22.4979 203.347 21.6436 202.072C20.2532 199.999 18.5808 198.495 16.6336 196.951C16.1294 196.55 15.5556 196.268 14.911 196.598C15.3722 200.581 18.4172 204.334 21.9975 206.01ZM11.077 215.859C11.3052 216.243 11.4811 216.8 11.8412 217.078C13.8678 218.644 16.0398 219.544 18.553 219.487C19.5963 219.463 20.2864 219.023 20.5555 218.125C20.8239 217.229 20.5 216.674 19.644 216.176C17.9438 215.189 16.0175 214.721 13.9254 214.702C12.903 214.69 11.8274 215.035 11.077 215.859ZM80.4381 261.763C79.3985 261.99 78.9414 262.107 78.2929 263.078C76.9349 265.113 76.4152 267.33 76.5101 269.819C76.5332 270.419 76.7545 271.108 77.352 271.195C77.9506 271.28 78.5789 271.073 78.8997 270.672C80.6694 268.469 81.4551 266.381 81.298 263.546C81.2593 262.855 81.0497 262.19 80.4381 261.763ZM44.0345 309.377C44.2813 309.462 44.7315 309.63 44.9591 309.683C48.8994 310.586 52.6748 310.72 56.6738 310.436C60.0074 310.197 63.1967 310.365 66.5334 310.86C66.8317 310.905 67.3963 310.931 67.7277 310.943C67.4833 310.765 67.07 310.4 66.8203 310.278C62.1488 307.992 57.7797 307.528 52.715 308.229C49.989 308.606 47.6024 309.196 44.8449 309.19C44.6692 309.19 44.2343 309.32 44.0345 309.377ZM97.0981 308.795L97.4436 308.744C97.5184 308.26 97.5052 307.745 97.5153 307.21C97.6007 302.531 98.6573 298.37 100.766 294.193C101.564 292.614 102.474 291.163 103.173 289.562C104.075 287.493 104.813 285.462 105.585 283.318C105.684 283.044 105.622 282.501 105.612 282.189L105.072 282.899C103.55 285.941 101.767 288.616 99.756 291.329C98.5315 292.983 97.3433 294.771 96.7965 296.763C95.6521 300.927 96.5213 304.63 97.0981 308.795ZM64.5037 187.618L64.1012 187.554L63.8451 188.007C63.0834 189.781 62.3123 191.57 61.4887 193.336C59.5038 197.595 56.9938 201.939 55.518 206.357C53.2008 213.29 52.0841 219.469 52.5839 226.712C52.6416 227.543 52.6657 228.421 52.7095 229.233L53.0242 229.322C54.4785 224.929 55.8757 220.551 57.2376 216.133C57.0733 217.564 56.8372 218.826 56.4488 220.241C55.5881 223.374 54.554 226.556 53.6071 229.693C53.4914 230.078 53.4598 230.512 53.3975 230.905L53.9016 230.674C55.5742 227.888 57.3902 225.101 58.9163 222.292C60.4415 219.483 60.7238 217.23 59.8755 214.171C59.6179 213.243 59.3172 212.201 59.0835 211.233C58.0997 207.147 58.7126 203.667 60.3151 199.847C61.5527 196.9 62.8258 194.098 63.9263 191.116C64.3379 189.998 64.3272 188.794 64.5037 187.618ZM32.079 175.548L31.7723 175.704C31.8731 176.186 32.1053 176.76 32.2387 177.262C32.8132 179.419 33.589 181.93 34.0693 184.023C34.7626 187.043 34.8998 190.425 35.1189 193.26C35.398 196.87 36.129 199.934 38.2002 202.549C39.9399 204.745 41.2955 206.18 42.6219 208.444C42.7397 208.645 42.9241 208.776 43.0143 208.847L43.224 208.803C43.2425 207.923 43.0682 206.965 42.9519 206.095L43.1345 206.069C43.5479 207.212 43.8371 208.412 44.1316 209.611L44.4232 209.545L44.5874 209.155C44.7031 208.027 44.9366 207.593 44.8674 206.292C44.5381 200.179 42.5656 194.945 39.326 189.377C37.7422 186.654 35.6586 182.797 34.1433 179.688C33.5264 178.421 32.7192 176.853 32.079 175.548ZM97.7427 326.187L98.0828 326.07C98.0658 325.202 97.8499 324.418 97.8801 323.496C98.0327 318.778 97.5537 314.287 96.6625 309.583C96.2613 307.465 95.8474 305.244 95.6091 302.97C95.1965 299.022 96.1711 295.512 98.3665 292.158C99.1871 290.904 100.169 289.819 101.014 288.559C104.736 283.016 107.075 277.941 106.503 271.14C106.438 270.368 106.252 269.559 106.167 268.779C106.029 268.897 105.822 268.915 105.729 269.107C105.634 269.298 105.561 269.555 105.492 269.794C104.566 273.053 103.323 275.935 101.335 278.722C99.6875 281.032 97.7827 283.215 96.0347 285.495C93.8763 288.308 92.1344 291.342 91.3023 294.815C90.0669 299.979 89.8188 305.449 90.4394 310.59C91.1189 316.22 92.9927 320.772 95.9777 325.415C96.1119 325.626 96.3494 325.78 96.4842 325.867L96.7633 325.766C94.4555 319.801 93.4207 313.912 93.5279 307.536C93.9511 310.791 94.2334 314.273 94.8673 317.447C95.5003 320.622 96.4256 323.285 97.7427 326.187ZM41.0434 259.345C39.7356 256.911 38.4308 254.481 36.9634 252.146C36.1428 250.841 35.3818 249.463 34.3492 248.346C32.0012 245.803 29.7481 243.134 27.5488 240.524C25.3503 237.915 23.101 235.735 20.1601 234.032C17.6939 232.602 15.1631 231.556 12.5706 230.281C9.97886 229.006 7.19208 227.727 4.55336 226.457C4.0938 226.236 3.6072 226.021 3.14842 225.808C3.23706 226.246 3.4777 226.686 3.75209 227.008C6.45023 230.165 9.21016 233.224 11.7987 236.446C14.0729 239.277 16.0252 242.331 18.3054 245.154C19.8422 247.055 21.5079 248.877 23.3963 250.418C25.9873 252.533 28.7379 254.25 31.651 255.845C34.5644 257.44 37.4013 259.037 40.205 260.8C40.4234 260.936 40.6678 260.972 40.9023 261.068C36.7907 256.155 32.0374 251.984 27.3182 247.67C32.2032 251.212 36.6726 255.198 41.0434 259.345ZM94.1307 215.892L93.8601 215.691C93.5448 215.979 93.2395 216.384 92.9017 216.771C89.4193 220.75 86.3433 224.542 81.7929 227.533C79.5158 229.029 76.6364 230.964 74.4758 232.727C72.3137 234.488 70.3126 236.286 68.7548 238.497C67.5234 240.246 66.5056 241.975 65.7314 243.912C64.5347 246.906 63.6302 249.731 62.8358 252.896C62.0416 256.06 61.5665 259.511 60.6012 262.709C60.1369 264.247 60.0838 265.96 59.9511 267.579C59.9203 267.956 60.0113 268.37 60.0344 268.74C60.6776 267.454 60.8957 265.913 61.4648 264.624C63.7196 259.513 66.2241 254.684 69.0788 249.897C69.4319 249.307 69.866 248.772 70.2462 248.196C68.8745 251.172 67.2413 253.918 65.746 256.85C64.0335 260.204 62.4625 263.648 61.5227 267.326C61.3869 267.855 61.3205 268.378 61.2335 268.907C62.8567 266.649 64.6294 264.353 66.3275 262.201C68.2899 259.714 70.4715 257.641 72.103 254.961C73.4201 252.797 74.6115 250.831 75.6024 248.446C76.5934 246.062 78.205 243.92 80.0656 242.038C81.3943 240.696 82.9388 239.285 84.3438 238.035C86.8824 235.781 88.814 233.236 89.7562 230.07C91.0078 225.861 92.2485 221.923 93.544 217.807C93.7492 217.153 93.9843 216.488 94.1307 215.892ZM68.8135 310.211C68.664 309.916 68.4218 309.379 68.2366 309.139C66.5658 306.979 64.9765 304.782 63.3848 302.616C62.0979 300.867 60.5349 299.114 58.7635 298.013C55.622 296.059 52.3648 295.081 48.8771 294.452C46.1388 293.958 43.4731 293.743 40.842 293.269C37.4376 292.653 34.4009 291.828 31.3634 290.3C30.159 289.694 29.1373 289.157 27.9467 288.585C27.9823 288.905 27.9674 289.286 28.0415 289.584C28.3686 290.9 28.4665 291.927 29.0038 293.24C31.2618 298.755 34.5235 303.057 39.2358 306.857C40.3785 307.777 41.7428 308.231 43.3019 308.392C45.8072 308.651 48.3281 308.392 50.8373 307.85C52.9594 307.39 55.0722 307.127 57.2522 307.226C57.7412 307.247 58.2262 307.165 58.7118 307.121C54.207 304.6 49.4979 302.516 44.8456 300.273C47.3588 301.104 49.7322 301.892 52.1836 302.972C55.2627 304.328 58.3488 305.816 61.4903 307.171C63.0595 307.848 64.7189 308.394 66.3761 309.038C67.1185 309.326 68.0639 309.849 68.8135 310.211ZM120.136 349.666C122.795 351.991 125.156 354.676 127.748 357.081C125.645 354.127 123.109 351.745 120.367 349.417C117.952 347.368 115.625 345.378 112.98 343.641L112.719 343.995C115.121 345.969 117.796 347.619 120.136 349.666ZM81.0011 290.192C79.9345 290.519 80.186 291.915 79.7633 292.784C77.5781 297.275 75.5207 301.677 75.0843 306.695C74.8637 309.231 75.2207 311.15 76.6497 313.227C78.6237 316.093 80.5145 318.756 83.0699 321.22C87.2231 325.223 92.1553 328.52 96.9029 331.866C98.2147 332.792 99.6875 333.708 101.086 334.493C101.477 334.713 101.911 334.934 102.27 335.072L102.484 334.876C102.262 334.519 101.937 334.187 101.633 333.802C98.8045 330.224 95.9021 327.211 93.6335 323.06C91.0765 318.377 89.6798 313.487 89.3738 307.938C89.1417 303.74 89.4524 299.178 90.4187 295.004C91.2684 291.331 93.1267 288.024 95.3268 285.108C97.5253 282.195 99.7831 279.664 101.765 276.727C103.348 274.381 104.266 272.034 105.119 269.352C105.314 268.74 105.709 268.092 106.171 267.599C106.351 268.157 106.673 268.682 106.763 269.273C107.316 272.877 107.547 276.201 107.002 279.867C106.276 284.747 104.594 288.903 102.164 293.328C99.7361 297.754 98.3673 302.711 98.3404 307.757C98.3171 312.187 98.6018 316.395 98.6703 320.639C98.7167 323.476 98.8523 325.883 99.5819 328.548C99.9889 330.036 100.764 331.288 101.704 332.504C102.156 333.086 102.592 333.566 103.06 334.178C104.631 336.233 106.507 337.642 108.633 339.154C113.347 342.508 117.938 346.061 122.429 349.775C124.735 351.68 126.636 354.013 128.74 356.222C129.266 356.775 129.741 357.471 129.412 358.312C128.622 358.697 127.929 358.439 127.335 357.888C126.32 356.95 125.438 355.906 124.455 355C122.349 353.059 120.185 350.918 118.043 349.147C115.901 347.376 114.178 346.004 111.945 344.318C109.713 342.634 106.676 342.759 104.444 344.526C102.211 346.29 100.51 348.306 98.968 350.647C98.0303 352.072 97.1173 353.255 95.6407 354.169C95.1973 354.443 94.5781 354.613 94.0891 354.818L94.2673 354.191C95.4887 352.763 95.8596 351.289 96.1072 349.486C96.135 349.281 96.1634 349.105 96.199 348.898C96.9307 344.549 99.1099 342.84 103.123 341.335C103.502 341.193 104.039 341.122 104.371 340.984L104.44 340.682C104.11 340.526 103.636 340.325 103.21 340.264C100.259 339.843 97.2038 339.215 94.2618 338.88C89.2905 338.311 84.3986 337.897 79.4704 337.172C78.8057 337.074 78.1432 337.103 77.4709 337.087C76.0474 338.815 74.3671 339.3 72.2011 339.328C71.2317 339.342 70.3998 339.304 69.4465 339.282C67.8195 339.247 66.6051 338.801 65.5308 337.545C64.9048 337.502 64.2794 337.46 63.6525 337.419C64.2115 336.793 64.8006 336.756 65.5825 336.604C67.2482 334.744 69.1589 334.343 71.5673 334.355C73.9746 334.367 75.8593 334.507 77.5232 336.363C82.1662 336.858 86.6356 337.368 91.3262 337.82C96.017 338.27 100.876 338.927 105.514 340.031L105.593 339.754C105.48 339.596 105.216 339.298 104.963 339.136C102.89 337.818 100.846 336.489 98.6796 335.273C95.5937 333.54 92.8592 331.528 90.077 329.284C87.2948 327.039 84.2227 325.703 80.7798 324.647C77.9281 323.772 74.9131 323.227 71.9613 322.787C68.3671 322.248 64.9564 322.9 61.4346 323.49C59.9302 323.741 58.5091 324.061 57.0402 324.321C56.4949 324.418 55.8873 324.428 55.41 324.41L55.376 324.106C55.504 324.013 56.0447 323.843 56.3408 323.681C56.9699 323.338 57.7056 322.971 58.3573 322.568C59.4645 321.881 60.4439 321.042 61.6089 320.389C65.076 318.448 68.3186 317.787 72.1579 319.031C73.9107 319.597 75.2994 320.701 76.9564 321.514C79.286 322.657 81.735 323.808 84.1726 324.757L84.033 324.128C80.7883 320.821 77.9042 317.515 74.1643 314.713C71.5988 312.793 68.714 312.029 65.4214 311.492C62.1279 310.957 58.4374 311.14 54.9844 311.338C52.1027 311.504 49.2395 311.539 46.3301 310.892C43.4214 310.244 40.2806 309.022 38.0274 307.07C33.0984 302.804 29.6586 298.033 27.7339 291.945C26.3258 287.491 25.692 283.798 24.1212 279.273C22.9984 276.038 20.6196 272.38 18.4604 269.462C18.2561 269.186 18.0664 268.686 18.0687 268.315C18.324 268.432 18.6432 268.52 18.8669 268.704C21.0336 270.485 23.1843 272.281 25.3295 274.079C25.5933 274.3 25.857 274.529 26.1006 274.756C29.101 277.538 29.5321 280.013 28.6793 283.883C28.5976 284.256 28.4687 284.654 28.3585 284.921C27.8364 286.18 27.8541 287.379 29.0224 288.115C32.1424 290.083 35.1234 291.437 38.7839 292.14C42.4436 292.841 46.1821 293.182 49.962 293.875C52.9695 294.426 55.834 295.227 58.6216 296.882C60.7254 298.129 62.6508 300.101 64.1336 302.162C65.928 304.658 67.9097 307.342 69.7588 309.709C71.6073 312.076 73.9784 313.367 76.2864 315.124C76.2355 314.905 76.1785 314.475 76.0813 314.321C72.7855 309.091 70.2863 303.836 67.6197 298.238C66.4631 295.808 65.15 293.457 63.9038 290.865C62.6578 288.273 60.8671 285.614 59.0652 283.203C56.4193 279.67 53.7498 275.872 51.0347 272.395C49.1299 269.958 47.1028 267.764 45.0539 265.522C43.7801 264.13 42.4091 263.143 40.849 262.117C37.5093 259.919 34.0849 258.133 30.5393 256.202C24.4181 252.87 19.4522 248.648 15.3921 242.939C12.5698 238.969 9.78461 235.021 6.61763 231.311C4.69668 229.063 2.73111 226.874 0.766333 224.643C0.42719 224.258 0.13167 223.788 0 223.271C0.252087 223.364 0.54346 223.419 0.777189 223.557C5.31061 226.25 10.1401 228.293 14.9503 230.393C20.756 232.93 25.3542 236.474 29.2737 241.373C30.941 243.458 32.763 245.461 34.4556 247.289C36.1475 249.117 37.2864 250.778 38.4215 252.842C40.327 256.311 42.0912 259.523 44.4986 262.663C46.3779 265.115 48.1267 267.547 50.1116 269.954C50.3892 270.291 50.8559 270.812 51.1758 271.152C51.1435 270.806 51.1018 270.177 51.0146 269.877C49.6876 265.326 49.1986 260.818 48.6627 256.189C48.4053 253.966 47.739 252.049 47.449 249.854C46.9216 245.856 46.856 241.62 46.6695 237.656C46.5421 234.946 46.0526 232.405 44.5559 230.245C43.6004 228.866 42.9734 227.675 41.8699 226.414C40.1071 224.396 38.3652 222.963 35.6323 222.152C31.4677 220.918 26.8679 219.815 22.5958 218.723C22.2127 218.624 21.6913 218.492 21.3629 218.62C20.9481 218.782 20.7383 219.505 20.3636 219.771C16.2966 220.936 12.8574 219.307 10.2256 216.129C9.79685 215.872 9.22714 215.616 8.8493 215.359L8.89312 215.081C9.31261 215.073 9.92181 215.179 10.3906 215.203C12.7664 213.622 14.9095 213.778 17.5498 214.585C18.1465 214.767 18.7172 214.952 19.294 215.168C20.5717 215.645 21.4053 216.259 21.6213 217.659C26.1916 218.77 30.7659 219.866 35.3271 221.015L35.3263 220.778C30.395 216.848 26.7652 212.084 22.9105 207.145C20.851 206.802 19.2439 205.903 17.9969 204.253C16.7501 202.601 15.7747 200.982 14.7004 199.241C14.1575 198.362 13.9657 197.435 13.984 196.386C13.9957 195.767 13.7027 195.052 13.6163 194.491L13.9208 194.306C14.2555 194.475 14.5223 195.095 14.9063 195.279C18.2545 196.884 20.5711 199.079 22.6861 202.111C23.3971 203.132 23.4672 204.196 23.2791 205.36C23.2345 205.637 23.0694 205.982 23.1997 206.166C24.3942 207.85 25.9318 209.526 27.1433 211.158C30.9108 216.234 35.8276 219.919 40.4435 224.027C42.2701 225.654 43.3852 227.361 44.8989 229.203C45.1256 229.478 45.3824 229.785 45.7217 229.967C45.6785 229.635 45.6376 229.237 45.5814 228.907C45.0778 225.93 44.4062 222.687 43.948 219.789C43.662 217.979 43.676 216.024 43.6174 214.459C43.5309 212.181 43.3783 210.684 42.1491 208.939C40.9206 207.194 40.2753 206.199 38.7809 204.45C35.8538 201.029 34.546 197.893 34.1958 192.912C33.8466 187.934 32.8848 181.94 31.3743 176.81C30.8908 175.169 30.3172 173.002 29.8468 171.292C30.7945 172.106 31.4722 172.994 32.1215 174.105C32.7699 175.219 33.5712 176.683 34.1295 177.836C36.0913 181.887 38.885 186.869 40.9015 190.474C44.026 196.061 45.606 201.209 45.5482 207.151C45.5212 209.942 44.6668 211.133 44.5904 213.938C44.5264 216.273 44.7193 218.936 45.121 221.556C45.522 224.175 46.1736 226.957 46.7666 229.77C47.1428 231.552 47.5037 233.73 47.6016 235.755C47.7205 238.221 47.6679 241.022 47.7327 243.574C47.7451 244.064 47.8468 244.587 48.1145 245.019C48.2286 244.615 48.3875 244.151 48.5101 243.744C49.2095 241.423 49.949 238.681 50.7015 236.474C51.8837 233.013 51.9777 229.631 51.7055 226.252C51.1689 219.605 52.2576 214.674 54.0621 208.341C55.0059 205.031 56.5581 201.778 58.1066 198.497C59.6542 195.218 61.4771 191.599 63.0409 188.232C63.4797 187.288 63.674 186.153 63.9664 185.192C64.0503 184.915 64.1877 184.471 64.2678 184.356L64.5809 184.337C64.7003 184.775 64.8377 185.32 64.8592 185.839C65.0165 189.56 64.6695 192.948 63.8438 196.639C63.0178 200.331 62.242 204.216 62.0655 208.057C61.9822 209.851 62.0709 211.614 61.9907 213.423C61.8233 217.227 60.9528 220.462 58.9671 223.747C57.1944 226.682 55.3036 229.391 53.5254 232.393C52.9363 233.388 52.3263 234.551 51.862 235.759C50.4077 239.545 49.2403 243.57 48.6419 247.607C48.5109 248.49 48.3705 249.404 48.5756 250.211C49.6552 254.469 49.7662 258.465 50.4186 262.841C51.2753 268.586 53.3041 273.896 56.6878 278.707C58.5075 281.293 60.4723 283.665 62.3462 286.232L62.9477 286.901C62.9308 286.577 62.926 286.022 62.8321 285.738C61.6222 282.088 60.7084 278.57 60.1979 274.77C60.096 274.016 59.8455 273.26 59.6789 272.498C58.8885 268.874 59.3003 265.163 60.0713 261.516C60.6705 258.686 61.1008 255.687 61.9443 252.837C62.3879 251.336 62.7209 249.804 63.2354 248.235C64.6433 243.936 66.4586 239.952 69.4049 236.48C71.8417 233.607 75.1089 231.076 78.026 229.104C81.847 226.52 85.1889 224.302 88.1409 221.096C90.3153 218.735 91.977 216.664 94.0482 214.348C94.4 213.955 94.7463 213.582 95.1055 213.209C95.5767 213.709 95.3207 214.356 95.1742 214.822C94.0768 218.318 93.0357 221.646 91.964 225.087C91.3825 226.949 90.8552 228.796 90.3561 230.69C89.39 234.357 86.4396 237.269 83.7131 239.701C80.9857 242.133 78.3083 244.65 76.6882 247.83C75.6425 249.883 74.9062 251.646 73.9608 253.664C73.4241 254.809 72.7223 255.833 71.9481 256.832C70.126 259.183 67.997 261.289 66.2403 263.676C64.4838 266.061 62.8798 268.578 61.7108 271.29C60.7615 273.491 61.1101 275.779 61.5612 278.024C62.1133 280.767 62.9738 283.521 63.738 286.137C65.591 292.484 68.7633 297.993 71.4569 303.961C71.8 304.721 72.2781 305.392 72.848 306.004C72.8496 305.664 72.8611 305.344 72.8109 305.003C71.5988 296.732 72.0098 288.928 73.7788 280.773C74.2808 278.458 75.1044 276.342 75.7544 274.048C76.0697 272.936 76.1076 271.989 75.8909 270.769C75.4575 268.329 75.7627 266.1 76.9519 263.85C77.676 262.478 78.4834 261.349 80.0056 260.824C80.2677 260.283 80.5421 259.742 80.7859 259.205C81.4228 259.789 80.839 260.415 81.1845 261.096C82.2124 263.119 82.3204 264.955 81.6496 267.15C81.4004 267.964 81.1197 268.68 80.7265 269.458C79.913 271.061 79.0215 272.161 77.1161 272.261C72.777 282.745 71.2449 295.875 74.2167 306.896C74.4472 305.917 74.4982 304.778 74.7974 303.834C76.3403 298.96 79.8297 295.194 81.0149 290.215L81.0011 290.192Z" fill="#BA8E34"/>
<path d="M81.8989 289.13C82.256 289.002 82.7649 288.94 83.0687 288.731C85.1516 287.288 86.4562 285.594 87.4201 283.261C87.5998 282.827 87.387 282.262 87.3716 281.804C84.0072 282.655 81.8458 285.697 81.8989 289.13ZM81.0177 290.202C80.7686 287.199 81.9607 285.103 83.7983 282.795C84.7098 281.65 85.8756 281.137 87.2883 280.882C87.7247 280.442 88.1843 279.99 88.5961 279.548C89.0379 280.314 88.1442 280.736 88.1928 281.403C88.3 282.884 88.1304 284.203 87.2135 285.363C86.2975 286.524 85.5679 287.628 84.5524 288.601C83.5368 289.574 81.7896 288.976 81.0076 290.184L81.0177 290.202Z" fill="#BA8E34"/>
<path d="M304.266 64.0648C307.027 66.1889 310.901 66.3113 313.834 64.4557C310.496 65.1012 307.555 64.8544 304.266 64.0648ZM282.298 32.5826C281.311 34.1698 280.617 35.7312 279.485 37.2789C278.354 38.8266 276.437 39.555 274.696 40.3189C279.27 39.5648 281.933 37.348 282.298 32.5826ZM271.925 40.1018C272.199 40.1116 272.476 40.2064 272.752 40.1492C275.985 39.476 278.39 38.2442 280.093 35.3344C280.974 33.8282 281.683 32.2786 282.522 30.727L282.36 30.1763C281.888 30.7823 281.349 31.4238 280.93 32.0614C278.532 35.7174 276.009 38.4001 271.925 40.1018ZM317.052 62.5803C314.294 62.6198 311.613 63.0285 308.846 63.139C306.076 63.2476 303.326 62.2546 300.645 61.6229C305.111 65.3775 312.016 64.8485 317.052 62.5803ZM308.522 170.285C308.182 173.447 307.947 176.667 307.383 179.79C306.816 182.913 305.924 185.903 305.17 188.973C309.302 182.788 310.741 177.494 308.522 170.285ZM351.592 115.211C349.74 111.073 348.589 107.111 347.596 102.683C347.553 102.49 347.316 102.213 347.18 102.04C346.232 104.786 345.188 107.259 346.651 110.064C347.727 112.127 349.849 113.667 351.592 115.211ZM301.834 47.6604C301.767 47.842 301.974 47.9861 302.029 48.1184L302.337 48.4126C305.091 49.6226 307.485 49.97 310.476 49.1922C311.212 48.9988 311.838 48.3414 312.038 47.5341C311.483 47.1787 310.952 46.6655 310.304 46.4957C308.992 46.1523 307.685 45.9193 306.339 45.8463C305.393 45.793 304.374 46.0378 303.498 46.249C302.623 46.4622 302.118 46.8767 301.834 47.6604ZM346.825 181.831C346.112 183.207 346.136 184.452 346.898 185.785C348.135 187.95 349.697 189.571 351.529 191.251C352.004 191.685 352.555 192.007 353.222 191.725C353.047 187.718 350.277 183.758 346.825 181.831ZM358.422 172.786C358.221 172.387 358.086 171.82 357.747 171.516C355.838 169.811 353.734 168.757 351.225 168.634C350.182 168.583 349.462 168.974 349.128 169.85C348.797 170.725 349.081 171.301 349.898 171.858C351.525 172.963 353.412 173.567 355.497 173.739C356.517 173.822 357.615 173.554 358.422 172.786ZM292.516 122.047C293.568 121.895 294.032 121.81 294.749 120.888C296.249 118.955 296.926 116.782 297.009 114.293C297.029 113.691 296.857 112.988 296.267 112.859C295.677 112.731 295.035 112.895 294.688 113.268C292.763 115.341 291.831 117.368 291.786 120.207C291.774 120.898 291.936 121.577 292.516 122.047ZM332.226 77.1548C331.987 77.0521 331.549 76.8507 331.326 76.7836C327.461 75.6011 323.704 75.1964 319.695 75.1964C316.353 75.1945 313.185 74.7997 309.892 74.0673C309.596 74.0022 309.035 73.9351 308.705 73.9015C308.936 74.095 309.323 74.4878 309.564 74.6279C314.061 77.2416 318.384 78.0174 323.487 77.6798C326.233 77.4982 328.655 77.0797 331.405 77.2831C331.581 77.2949 332.023 77.1962 332.226 77.1548ZM279.256 73.943L278.909 73.9726C278.8 74.4483 278.777 74.9635 278.727 75.4965C278.309 80.1572 276.957 84.2337 274.556 88.247C273.648 89.765 272.635 91.1488 271.824 92.6945C270.776 94.6942 269.895 96.6682 268.974 98.7489C268.855 99.0173 268.877 99.5641 268.865 99.876L269.453 99.2049C271.19 96.2793 273.161 93.7388 275.358 91.1764C276.698 89.615 278.011 87.9153 278.7 85.9689C280.137 81.8964 279.535 78.1418 279.256 73.943ZM303.113 197.142L303.512 197.232L303.798 196.8C304.686 195.083 305.582 193.355 306.53 191.652C308.814 187.546 311.627 183.39 313.416 179.091C316.221 172.342 317.776 166.258 317.796 158.997C317.798 158.164 317.835 157.287 317.849 156.472L317.543 156.364C315.778 160.641 314.071 164.907 312.399 169.217C312.663 167.801 312.989 166.56 313.479 165.176C314.56 162.112 315.82 159.013 316.989 155.951C317.131 155.576 317.194 155.144 317.283 154.759L316.764 154.95C314.896 157.609 312.886 160.26 311.165 162.953C309.442 165.648 309 167.874 309.627 170.987C309.817 171.931 310.044 172.991 310.208 173.972C310.897 178.118 310.036 181.547 308.167 185.24C306.722 188.095 305.251 190.795 303.94 193.693C303.449 194.779 303.374 195.979 303.113 197.142ZM334.595 211.495L334.911 211.361C334.846 210.873 334.654 210.283 334.558 209.774C334.137 207.58 333.545 205.02 333.215 202.9C332.738 199.836 332.842 196.455 332.826 193.612C332.807 189.99 332.297 186.882 330.416 184.127C328.839 181.811 327.589 180.283 326.429 177.93C326.324 177.721 326.15 177.577 326.065 177.502L325.852 177.529C325.771 178.406 325.876 179.373 325.931 180.25L325.746 180.261C325.416 179.093 325.213 177.875 325.005 176.657L324.709 176.702L324.518 177.081C324.322 178.197 324.058 178.615 324.034 179.916C323.925 186.038 325.52 191.399 328.353 197.183C329.739 200.012 331.541 204.009 332.83 207.217C333.355 208.526 334.048 210.149 334.595 211.495ZM279.857 56.5516L279.509 56.6443C279.464 57.5109 279.624 58.3084 279.527 59.2264C279.037 63.9207 279.195 68.4334 279.748 73.1909C279.997 75.3307 280.251 77.5752 280.326 79.8612C280.457 83.829 279.233 87.2599 276.803 90.448C275.897 91.6403 274.838 92.655 273.905 93.8493C269.799 99.1121 267.102 104.008 267.187 110.832C267.197 111.606 267.323 112.427 267.355 113.211C267.501 113.102 267.706 113.1 267.815 112.915C267.923 112.731 268.014 112.48 268.099 112.247C269.256 109.063 270.701 106.276 272.884 103.639C274.692 101.451 276.747 99.4102 278.654 97.2625C281.007 94.6093 282.962 91.7074 284.04 88.3022C285.641 83.2407 286.278 77.8022 286.027 72.6322C285.751 66.9647 284.207 62.2921 281.562 57.4458C281.444 57.2286 281.217 57.0569 281.088 56.9602L280.802 57.0411C282.679 63.1567 283.291 69.1026 282.729 75.4571C282.539 72.1782 282.506 68.686 282.101 65.4742C281.694 62.2624 280.962 59.5403 279.857 56.5516ZM331.638 127.272C332.769 129.793 333.896 132.312 335.193 134.744C335.918 136.104 336.579 137.533 337.529 138.722C339.688 141.424 341.745 144.249 343.753 147.009C345.759 149.768 347.847 152.104 350.66 154.013C353.017 155.613 355.467 156.837 357.962 158.294C360.455 159.751 363.144 161.228 365.685 162.681C366.129 162.935 366.597 163.186 367.041 163.429C366.984 162.987 366.774 162.529 366.524 162.189C364.058 158.847 361.523 155.6 359.172 152.2C357.105 149.214 355.376 146.029 353.303 143.053C351.906 141.045 350.376 139.108 348.601 137.436C346.169 135.141 343.548 133.234 340.756 131.433C337.963 129.635 335.249 127.839 332.578 125.88C332.37 125.728 332.128 125.677 331.901 125.564C335.651 130.756 340.095 135.257 344.493 139.896C339.874 136.015 335.701 131.722 331.638 127.272ZM275.583 166.822L275.837 167.043C276.173 166.779 276.507 166.396 276.872 166.034C280.628 162.313 283.967 158.752 288.72 156.093C291.097 154.763 294.107 153.039 296.389 151.434C298.671 149.831 300.795 148.183 302.507 146.087C303.861 144.43 305 142.78 305.91 140.903C307.318 138.001 308.421 135.249 309.44 132.148C310.458 129.049 311.179 125.641 312.369 122.52C312.942 121.018 313.117 119.313 313.366 117.708C313.423 117.335 313.362 116.914 313.366 116.545C312.632 117.781 312.304 119.303 311.645 120.548C309.031 125.485 306.188 130.123 302.998 134.692C302.604 135.257 302.134 135.76 301.713 136.307C303.293 133.437 305.119 130.813 306.82 127.996C308.767 124.773 310.579 121.449 311.781 117.848C311.953 117.331 312.057 116.813 312.182 116.292C310.401 118.428 308.469 120.592 306.621 122.617C304.487 124.958 302.163 126.869 300.343 129.426C298.875 131.491 297.546 133.368 296.387 135.676C295.23 137.983 293.47 140.003 291.478 141.748C290.056 142.993 288.416 144.29 286.926 145.433C284.231 147.502 282.125 149.903 280.958 152.994C279.408 157.1 277.89 160.941 276.305 164.955C276.053 165.592 275.77 166.238 275.583 166.822ZM307.57 74.5529C307.699 74.8569 307.902 75.4097 308.07 75.6624C309.582 77.9365 311.009 80.2422 312.442 82.5143C313.603 84.3522 315.036 86.2117 316.724 87.4376C319.717 89.609 322.897 90.8172 326.332 91.6937C329.026 92.3826 331.672 92.7873 334.26 93.4486C337.614 94.3054 340.583 95.3476 343.504 97.0867C344.661 97.7776 345.642 98.3856 346.789 99.041C346.775 98.7193 346.819 98.3403 346.765 98.0402C346.534 96.7018 346.509 95.6713 346.066 94.3231C344.209 88.6595 341.262 84.1369 336.832 80.0112C335.76 79.0103 334.431 78.4615 332.888 78.1891C330.406 77.7509 327.874 77.8279 325.333 78.1911C323.183 78.4991 321.057 78.6096 318.89 78.3569C318.404 78.2997 317.914 78.349 317.425 78.3549C321.74 81.1916 326.288 83.6079 330.768 86.1761C328.32 85.1694 326.008 84.2139 323.641 82.9604C320.666 81.3871 317.695 79.6815 314.657 78.1082C313.141 77.3205 311.524 76.6573 309.919 75.8973C309.197 75.5558 308.293 74.9655 307.57 74.5529ZM259.196 31.5324C256.711 29.0233 254.547 26.1768 252.135 23.5947C254.02 26.69 256.381 29.2465 258.949 31.7654C261.21 33.9802 263.389 36.1319 265.904 38.0547L266.19 37.7191C263.934 35.5792 261.385 33.7433 259.196 31.5324ZM293.985 93.65C295.071 93.3993 294.921 91.9898 295.404 91.1547C297.905 86.8316 300.27 82.5854 301.064 77.6127C301.467 75.0978 301.247 73.1573 299.97 70.9859C298.205 67.9833 296.51 65.194 294.137 62.5527C290.28 58.265 285.597 54.6229 281.1 50.9453C279.857 49.9306 278.453 48.9119 277.115 48.0276C276.739 47.7808 276.323 47.5301 275.976 47.3662L275.747 47.5459C275.944 47.919 276.244 48.2724 276.518 48.677C279.085 52.4494 281.765 55.6593 283.732 59.9647C285.948 64.8169 286.991 69.7935 286.902 75.3505C286.833 79.5552 286.195 84.0837 284.936 88.1779C283.824 91.7805 281.734 94.9469 279.333 97.6968C276.931 100.447 274.499 102.81 272.312 105.599C270.565 107.824 269.483 110.1 268.439 112.715C268.202 113.312 267.761 113.927 267.264 114.387C267.126 113.817 266.842 113.272 266.794 112.676C266.5 109.042 266.506 105.707 267.313 102.091C268.387 97.2763 270.361 93.2512 273.099 89.0089C275.837 84.7687 277.557 79.9223 277.944 74.8905C278.283 70.4745 278.301 66.256 278.534 62.0177C278.692 59.1869 278.727 56.7766 278.19 54.0642C277.89 52.5501 277.207 51.2473 276.357 49.9681C275.948 49.3561 275.547 48.8448 275.123 48.2013C273.701 46.0397 271.933 44.5 269.921 42.8398C265.458 39.1582 261.131 35.2851 256.916 31.262C254.752 29.1952 253.025 26.7315 251.083 24.3804C250.599 23.7921 250.175 23.0617 250.561 22.2464C251.377 21.9187 252.05 22.2268 252.605 22.819C253.548 23.8257 254.356 24.9312 255.27 25.9044C257.232 27.991 259.237 30.2809 261.247 32.1997C263.259 34.1204 264.877 35.6108 266.984 37.4506C269.09 39.2904 272.13 39.3832 274.483 37.7823C276.834 36.1793 278.676 34.2902 280.38 32.0654C281.418 30.7112 282.413 29.5979 283.951 28.7905C284.413 28.5497 285.042 28.4233 285.546 28.2535L285.323 28.8674C284.002 30.2038 283.526 31.6489 283.151 33.4295C283.11 33.6309 283.068 33.8045 283.019 34.0078C281.977 38.2935 279.683 39.8451 275.571 41.0572C275.184 41.1717 274.643 41.2033 274.302 41.3178L274.211 41.6139C274.529 41.7936 274.987 42.0285 275.409 42.1193C278.323 42.751 281.325 43.5939 284.235 44.1387C289.152 45.0606 294.003 45.8246 298.867 46.8985C299.522 47.0445 300.185 47.0622 300.855 47.1274C302.398 45.5067 304.108 45.1415 306.271 45.2679C307.239 45.3251 308.066 45.4199 309.015 45.5087C310.636 45.6607 311.815 46.1937 312.798 47.5222C313.419 47.611 314.039 47.696 314.661 47.7828C314.059 48.3652 313.469 48.3612 312.677 48.4559C310.885 50.1951 308.948 50.4557 306.548 50.2721C304.147 50.0885 302.278 49.8161 300.75 47.846C296.154 47.0188 291.734 46.1937 287.088 45.408C282.441 44.6203 277.64 43.6195 273.093 42.1883L272.995 42.4568C273.095 42.6246 273.338 42.9405 273.579 43.1201C275.553 44.5829 277.498 46.0516 279.57 47.4216C282.525 49.37 285.109 51.573 287.723 54.0109C290.339 56.4489 293.308 57.9985 296.666 59.2994C299.449 60.3753 302.416 61.1333 305.328 61.7847C308.875 62.5783 312.324 62.1717 315.879 61.8361C317.397 61.692 318.838 61.4748 320.321 61.3189C320.872 61.2616 321.48 61.2952 321.953 61.3485L321.967 61.6545C321.831 61.7354 321.28 61.8657 320.974 62.0058C320.321 62.3039 319.561 62.6178 318.884 62.9731C317.729 63.5791 316.692 64.3471 315.484 64.9156C311.888 66.6035 308.605 67.0298 304.866 65.5177C303.156 64.8268 301.85 63.6265 300.256 62.6968C298.014 61.3899 295.653 60.0674 293.29 58.9481L293.383 59.5857C296.385 63.1133 299.025 66.6192 302.554 69.679C304.976 71.7794 307.799 72.7467 311.047 73.5166C314.292 74.2864 317.985 74.3673 321.446 74.4147C324.332 74.4562 327.189 74.626 330.045 75.4808C332.901 76.3336 335.945 77.7766 338.054 79.8829C342.665 84.4903 345.757 89.4946 347.241 95.7069C348.327 100.249 348.696 103.976 349.94 108.601C350.828 111.912 352.94 115.728 354.885 118.793C355.07 119.084 355.222 119.595 355.195 119.966C354.948 119.83 354.636 119.719 354.425 119.52C352.391 117.589 350.374 115.645 348.364 113.696C348.116 113.458 347.869 113.209 347.642 112.968C344.848 109.977 344.596 107.478 345.721 103.68C345.83 103.315 345.988 102.924 346.116 102.665C346.728 101.449 346.795 100.253 345.682 99.4339C342.711 97.2467 339.834 95.6832 336.234 94.7218C332.633 93.7605 328.928 93.1544 325.207 92.193C322.247 91.4271 319.446 90.4243 316.785 88.5766C314.776 87.179 312.995 85.0766 311.663 82.915C310.052 80.2974 308.267 77.4785 306.591 74.9852C304.917 72.492 302.645 71.0352 300.468 69.1164C300.503 69.3395 300.529 69.7737 300.616 69.9356C303.529 75.384 305.646 80.8048 307.906 86.5809C308.885 89.086 310.028 91.5258 311.086 94.1987C312.144 96.8736 313.739 99.655 315.366 102.186C317.751 105.901 320.143 109.879 322.603 113.54C324.33 116.111 326.196 118.442 328.079 120.823C329.249 122.303 330.546 123.385 332.029 124.522C335.203 126.95 338.492 128.978 341.891 131.155C347.758 134.917 352.409 139.483 356.051 145.469C358.582 149.63 361.079 153.768 363.973 157.692C365.728 160.071 367.532 162.396 369.333 164.761C369.645 165.17 369.905 165.659 370 166.185C369.755 166.074 369.469 165.999 369.244 165.843C364.915 162.835 360.244 160.452 355.595 158.012C349.987 155.069 345.654 151.203 342.093 146.037C340.579 143.84 338.905 141.712 337.347 139.768C335.79 137.823 334.773 136.086 333.788 133.944C332.136 130.348 330.604 127.019 328.428 123.715C326.729 121.135 325.157 118.586 323.349 116.042C323.096 115.686 322.668 115.134 322.374 114.772C322.382 115.118 322.378 115.749 322.443 116.053C323.442 120.689 323.608 125.221 323.813 129.876C323.91 132.11 324.439 134.071 324.571 136.282C324.812 140.305 324.575 144.535 324.476 148.505C324.409 151.215 324.717 153.786 326.055 156.048C326.91 157.491 327.451 158.723 328.46 160.059C330.075 162.199 331.711 163.752 334.378 164.755C338.445 166.285 342.953 167.714 347.136 169.108C347.511 169.234 348.023 169.402 348.358 169.298C348.785 169.167 349.045 168.461 349.438 168.222C353.578 167.349 356.892 169.221 359.291 172.578C359.699 172.865 360.248 173.161 360.607 173.445L360.544 173.72C360.126 173.698 359.526 173.546 359.06 173.49C356.576 174.896 354.45 174.588 351.874 173.595C351.292 173.37 350.737 173.145 350.176 172.888C348.937 172.322 348.149 171.651 348.033 170.239C343.553 168.804 339.068 167.383 334.601 165.912L334.585 166.149C339.222 170.423 342.503 175.433 345.995 180.633C348.025 181.122 349.564 182.133 350.69 183.87C351.817 185.605 352.674 187.291 353.621 189.103C354.099 190.019 354.225 190.957 354.131 192.001C354.075 192.619 354.316 193.353 354.363 193.918L354.046 194.082C353.724 193.888 353.501 193.251 353.132 193.042C349.906 191.202 347.752 188.845 345.861 185.67C345.224 184.6 345.229 183.534 345.5 182.388C345.565 182.115 345.755 181.782 345.638 181.59C344.566 179.823 343.153 178.043 342.061 176.327C338.666 170.995 334.025 166.97 329.713 162.542C328.008 160.789 327.017 159.007 325.639 157.062C325.432 156.77 325.199 156.445 324.873 156.241C324.893 156.575 324.905 156.974 324.936 157.307C325.226 160.312 325.665 163.597 325.915 166.52C326.071 168.346 325.917 170.293 325.864 171.86C325.787 174.136 325.834 175.64 326.934 177.47C328.035 179.298 328.608 180.337 329.974 182.186C332.649 185.809 333.731 189.032 333.723 194.025C333.715 199.015 334.246 205.062 335.387 210.287C335.752 211.957 336.17 214.16 336.518 215.901C335.63 215.021 335.016 214.085 334.449 212.93C333.881 211.775 333.188 210.255 332.712 209.067C331.046 204.886 328.614 199.718 326.861 195.977C324.143 190.181 322.934 184.934 323.416 179.01C323.643 176.228 324.581 175.101 324.857 172.31C325.086 169.985 325.084 167.314 324.871 164.672C324.658 162.033 324.208 159.212 323.817 156.364C323.568 154.559 323.363 152.36 323.41 150.333C323.469 147.865 323.72 145.074 323.839 142.524C323.86 142.036 323.797 141.505 323.562 141.057C323.418 141.452 323.227 141.904 323.077 142.3C322.212 144.567 321.278 147.247 320.37 149.393C318.943 152.763 318.609 156.129 318.639 159.518C318.7 166.188 317.261 171.029 315.009 177.216C313.832 180.451 312.051 183.584 310.273 186.744C308.494 189.905 306.417 193.385 304.617 196.632C304.112 197.542 303.837 198.662 303.478 199.599C303.373 199.87 303.206 200.302 303.117 200.411L302.803 200.409C302.716 199.961 302.617 199.408 302.631 198.889C302.742 195.168 303.33 191.812 304.416 188.189C305.504 184.567 306.556 180.747 307.006 176.929C307.217 175.143 307.254 173.38 307.464 171.58C307.902 167.799 309.002 164.635 311.216 161.498C313.194 158.699 315.275 156.133 317.261 153.264C317.92 152.313 318.613 151.196 319.162 150.025C320.883 146.353 322.334 142.421 323.219 138.437C323.414 137.567 323.619 136.665 323.473 135.843C322.7 131.52 322.873 127.529 322.536 123.115C322.092 117.323 320.447 111.882 317.415 106.843C315.784 104.132 313.994 101.625 312.31 98.9325C312.201 98.7607 311.899 98.4054 311.757 98.2238C311.751 98.5476 311.716 99.1003 311.789 99.3904C312.734 103.117 313.396 106.691 313.633 110.518C313.68 111.278 313.877 112.05 313.988 112.822C314.519 116.494 313.842 120.165 312.813 123.746C312.012 126.528 311.37 129.489 310.324 132.27C309.775 133.735 309.333 135.239 308.707 136.769C306.998 140.956 304.901 144.8 301.715 148.053C299.08 150.743 295.639 153.035 292.589 154.794C288.594 157.098 285.102 159.074 281.929 162.061C279.59 164.26 277.786 166.206 275.553 168.368C275.174 168.735 274.803 169.082 274.418 169.43C273.984 168.897 274.286 168.269 274.465 167.815C275.81 164.406 277.085 161.161 278.4 157.807C279.112 155.989 279.772 154.184 280.403 152.333C281.629 148.744 284.78 146.049 287.674 143.818C290.568 141.586 293.418 139.268 295.262 136.212C296.45 134.238 297.311 132.533 298.399 130.588C299.015 129.485 299.789 128.514 300.632 127.57C302.617 125.355 304.892 123.407 306.814 121.152C308.737 118.898 310.516 116.504 311.876 113.882C312.979 111.754 312.796 109.446 312.505 107.176C312.152 104.399 311.489 101.59 310.914 98.9285C309.519 92.4635 306.747 86.7427 304.487 80.5975C304.201 79.8158 303.77 79.113 303.245 78.4596C303.22 78.8011 303.186 79.117 303.212 79.4624C303.83 87.7989 302.862 95.5529 300.515 103.562C299.85 105.834 298.877 107.887 298.065 110.127C297.67 111.213 297.566 112.157 297.694 113.388C297.953 115.854 297.489 118.055 296.143 120.215C295.321 121.531 294.435 122.599 292.879 123.014C292.579 123.533 292.267 124.056 291.985 124.573C291.393 123.944 292.021 123.361 291.723 122.659C290.842 120.566 290.866 118.728 291.693 116.586C291.999 115.793 292.331 115.098 292.779 114.352C293.703 112.808 294.672 111.776 296.579 111.811C301.656 101.665 304.122 88.6792 301.944 77.4745C301.644 78.4339 301.512 79.565 301.147 80.4849C299.26 85.2365 295.511 88.7444 293.973 93.6263L293.985 93.65Z" fill="#BA8E34"/>
<path d="M293.01 94.6456C292.645 94.7483 292.134 94.772 291.816 94.9615C289.637 96.2505 288.213 97.8476 287.084 100.104C286.875 100.526 287.047 101.105 287.029 101.563C290.446 100.955 292.819 98.0726 293.01 94.6456ZM293.968 93.6408C294.001 96.6532 292.661 98.6589 290.665 100.83C289.674 101.906 288.474 102.335 287.047 102.489C286.579 102.895 286.089 103.316 285.647 103.724C285.26 102.931 286.182 102.571 286.182 101.902C286.18 100.418 286.445 99.1149 287.442 98.0233C288.439 96.9316 289.244 95.8814 290.328 94.9852C291.409 94.087 293.109 94.8095 293.976 93.6586L293.968 93.6408Z" fill="#BA8E34"/>
</svg>
