<svg width="16" height="16" viewBox="0 0 16 16" fill="none" xmlns="http://www.w3.org/2000/svg">
<path d="M11.4925 7.33124C11.2981 7.33333 11.1078 7.38696 10.9409 7.48666C10.774 7.58636 10.6365 7.72856 10.5425 7.89874C10.4485 7.72856 10.3111 7.58636 10.1442 7.48666C9.97729 7.38696 9.78693 7.33333 9.59253 7.33124C9.28981 7.34039 9.00308 7.46923 8.79522 7.6895C8.58737 7.90978 8.47537 8.2035 8.48378 8.50624C8.48378 8.50624 8.48378 8.56999 8.48378 8.59999V8.63624C8.57128 9.59374 10.3913 10.7312 10.4688 10.7787C10.4887 10.7911 10.5116 10.7976 10.535 10.7975C10.5584 10.7976 10.5814 10.7911 10.6013 10.7787C10.6788 10.7312 12.4988 9.59374 12.585 8.63874C12.585 8.62874 12.585 8.59124 12.585 8.57124C12.585 8.55124 12.585 8.50499 12.585 8.50374C12.5935 8.20396 12.4836 7.91288 12.2792 7.69347C12.0748 7.47405 11.7922 7.34393 11.4925 7.33124ZM12.3488 8.55749C12.3488 8.57374 12.3488 8.60374 12.3488 8.61374C12.2888 9.27749 11.0863 10.18 10.5475 10.525C10.0088 10.18 8.80628 9.27499 8.74503 8.61124V8.57999C8.74503 8.55749 8.74503 8.50999 8.74503 8.50374C8.73726 8.26771 8.82321 8.0382 8.98412 7.86535C9.14503 7.6925 9.3678 7.59036 9.60378 7.58124C9.79794 7.5867 9.98476 7.65661 10.1348 7.77995C10.2849 7.90329 10.3896 8.07306 10.4325 8.26249C10.4393 8.28952 10.4549 8.31351 10.4769 8.33065C10.4988 8.34779 10.5259 8.3571 10.5538 8.3571C10.5816 8.3571 10.6087 8.34779 10.6307 8.33065C10.6526 8.31351 10.6683 8.28952 10.675 8.26249C10.718 8.07306 10.8227 7.90329 10.9728 7.77995C11.1228 7.65661 11.3096 7.5867 11.5038 7.58124C11.7371 7.59291 11.9565 7.69573 12.1148 7.86756C12.2731 8.03939 12.3575 8.26649 12.35 8.49999C12.35 8.50874 12.3488 8.54124 12.3488 8.55749Z" fill="black"/>
<path d="M4.03875 5.82373C3.97076 5.82249 3.90394 5.84151 3.8468 5.87839C3.78966 5.91526 3.74479 5.9683 3.7179 6.03077C3.69102 6.09323 3.68334 6.16229 3.69584 6.22913C3.70834 6.29598 3.74046 6.35759 3.7881 6.40611C3.83574 6.45464 3.89675 6.48789 3.96335 6.50162C4.02996 6.51535 4.09914 6.50894 4.16209 6.48321C4.22504 6.45748 4.2789 6.41359 4.31682 6.35714C4.35474 6.30069 4.37499 6.23423 4.375 6.16623C4.37502 6.07646 4.33979 5.99028 4.27691 5.92623C4.21402 5.86217 4.1285 5.82536 4.03875 5.82373ZM4.03875 6.25748C4.01623 6.25485 3.99546 6.24403 3.98039 6.2271C3.96532 6.21016 3.95699 6.18828 3.95699 6.1656C3.95699 6.14293 3.96532 6.12104 3.98039 6.10411C3.99546 6.08717 4.01623 6.07636 4.03875 6.07373C4.06127 6.07636 4.08204 6.08717 4.09712 6.10411C4.11219 6.12104 4.12052 6.14293 4.12052 6.1656C4.12052 6.18828 4.11219 6.21016 4.09712 6.2271C4.08204 6.24403 4.06127 6.25485 4.03875 6.25748Z" fill="black"/>
<path d="M5.45749 5.82373C5.38975 5.82373 5.32353 5.84382 5.26721 5.88145C5.21088 5.91909 5.16698 5.97258 5.14106 6.03516C5.11514 6.09775 5.10836 6.16661 5.12157 6.23305C5.13479 6.29949 5.16741 6.36051 5.21531 6.40841C5.26321 6.45631 5.32423 6.48893 5.39067 6.50215C5.45711 6.51537 5.52598 6.50858 5.58856 6.48266C5.65114 6.45674 5.70463 6.41284 5.74227 6.35651C5.7799 6.30019 5.79999 6.23397 5.79999 6.16623C5.79999 6.07539 5.76391 5.98828 5.69967 5.92405C5.63544 5.85982 5.54833 5.82373 5.45749 5.82373ZM5.45749 6.25748C5.43914 6.25748 5.42121 6.25202 5.40597 6.2418C5.39073 6.23158 5.37888 6.21706 5.37192 6.20008C5.36496 6.18311 5.3632 6.16445 5.36687 6.14647C5.37054 6.12849 5.37948 6.11201 5.39254 6.09913C5.4056 6.08624 5.4222 6.07753 5.44022 6.07411C5.45825 6.07068 5.47688 6.07269 5.49376 6.07989C5.51064 6.08708 5.525 6.09913 5.53501 6.1145C5.54502 6.12988 5.55024 6.14788 5.54999 6.16623C5.54999 6.17832 5.54759 6.19029 5.54293 6.20144C5.53826 6.21259 5.53143 6.22271 5.52282 6.2312C5.51422 6.23969 5.50401 6.24638 5.49279 6.2509C5.48158 6.25541 5.46958 6.25765 5.45749 6.25748Z" fill="black"/>
<path d="M6.875 6.50751C6.94285 6.50776 7.00924 6.48785 7.06576 6.45031C7.12227 6.41277 7.16636 6.35929 7.19244 6.29666C7.21852 6.23402 7.22541 6.16505 7.21223 6.0985C7.19906 6.03194 7.16641 5.9708 7.11844 5.92283C7.07046 5.87485 7.00932 5.84221 6.94276 5.82903C6.87621 5.81585 6.80724 5.82274 6.74461 5.84882C6.68197 5.8749 6.62849 5.91899 6.59096 5.97551C6.55342 6.03202 6.53351 6.09841 6.53375 6.16626C6.53408 6.25666 6.57014 6.34327 6.63407 6.40719C6.69799 6.47112 6.7846 6.50718 6.875 6.50751ZM6.875 6.07376C6.89335 6.07351 6.91136 6.07872 6.92673 6.08874C6.94211 6.09875 6.95416 6.11311 6.96135 6.12999C6.96854 6.14686 6.97055 6.1655 6.96713 6.18353C6.9637 6.20155 6.95499 6.21815 6.94211 6.23121C6.92922 6.24427 6.91274 6.25321 6.89477 6.25688C6.87679 6.26055 6.85813 6.25879 6.84115 6.25183C6.82418 6.24487 6.80965 6.23301 6.79943 6.21778C6.78921 6.20254 6.78376 6.18461 6.78375 6.16626C6.78375 6.14194 6.79333 6.1186 6.8104 6.10129C6.82748 6.08398 6.85069 6.07409 6.875 6.07376Z" fill="black"/>
<path d="M11.5687 5.9825C11.5523 5.9788 11.5353 5.97838 11.5188 5.98125C11.5022 5.98412 11.4863 5.99022 11.4721 5.99922C11.4434 6.01739 11.4231 6.04622 11.4156 6.07937C11.4081 6.11252 11.4142 6.14728 11.4323 6.176C11.4505 6.20471 11.4793 6.22504 11.5125 6.2325C12.1263 6.36604 12.6959 6.65385 13.1675 7.06874C13.192 7.0909 13.2244 7.10242 13.2574 7.10078C13.2904 7.09914 13.3215 7.08448 13.3437 7.05999C13.3659 7.03544 13.3774 7.0031 13.3758 6.97006C13.3741 6.93703 13.3595 6.90599 13.335 6.88375C12.8328 6.43744 12.2248 6.12716 11.5687 5.9825Z" fill="black"/>
<path d="M13.6787 7.66999C13.7382 7.76791 13.7916 7.86934 13.8387 7.97374C13.8484 7.99591 13.8643 8.01479 13.8845 8.0281C13.9047 8.04141 13.9283 8.04858 13.9525 8.04874C13.9701 8.04905 13.9875 8.04564 14.0037 8.03874C14.0188 8.0321 14.0323 8.02256 14.0437 8.01068C14.055 7.99879 14.0639 7.98478 14.0698 7.96946C14.0757 7.95413 14.0786 7.93779 14.0782 7.92137C14.0778 7.90494 14.0741 7.88876 14.0675 7.87374C14.0165 7.75818 13.9576 7.64625 13.8912 7.53874C13.8847 7.52177 13.8746 7.50642 13.8616 7.49375C13.8486 7.48108 13.833 7.47141 13.8158 7.4654C13.7987 7.4594 13.7804 7.4572 13.7623 7.45897C13.7442 7.46073 13.7268 7.46642 13.7111 7.47563C13.6954 7.48484 13.682 7.49736 13.6716 7.51231C13.6613 7.52725 13.6544 7.54427 13.6513 7.56218C13.6482 7.58009 13.6491 7.59845 13.6538 7.61599C13.6585 7.63353 13.6671 7.64982 13.6787 7.66374V7.66999Z" fill="black"/>
<mask id="path-7-inside-1_390_14" fill="white">
<path d="M10.5425 5.24997C10.2776 5.24975 10.0132 5.26939 9.75125 5.30872C9.31 3.69622 7.5275 2.53497 5.4575 2.53497C3.0325 2.53497 1.06 4.12497 1.06 6.07747C1.06 7.03247 1.5225 7.92372 2.3625 8.59372V10.625C2.36244 10.6475 2.36844 10.6695 2.37988 10.6889C2.39132 10.7083 2.40777 10.7242 2.4275 10.735C2.44593 10.7449 2.46656 10.7501 2.4875 10.75C2.51145 10.7499 2.53488 10.743 2.555 10.73L4.41125 9.52497C5.01715 9.64122 5.63824 9.65516 6.24875 9.56622C6.68375 11.1537 8.44375 12.345 10.5425 12.345C10.8936 12.3451 11.244 12.3116 11.5887 12.245L13.445 13.45C13.4651 13.463 13.4885 13.4699 13.5125 13.47C13.5334 13.4701 13.5541 13.4649 13.5725 13.455C13.5922 13.4442 13.6087 13.4283 13.6201 13.4089C13.6316 13.3895 13.6376 13.3675 13.6375 13.345V11.3137C14.4775 10.6437 14.94 9.75247 14.94 8.79747C14.94 6.84372 12.9675 5.24997 10.5425 5.24997ZM4.41125 9.26497C4.37931 9.25853 4.34612 9.26481 4.31875 9.28247L2.6125 10.39V8.53372C2.61245 8.51463 2.60803 8.49581 2.59958 8.47869C2.59113 8.46157 2.57887 8.44662 2.56375 8.43497C1.755 7.80997 1.31375 6.97122 1.31375 6.07747C1.31375 4.26247 3.17375 2.78497 5.46125 2.78497C7.41 2.78497 9.08625 3.85872 9.5075 5.35497C7.5825 5.72997 6.14875 7.13247 6.14875 8.79747C6.14877 8.97189 6.16467 9.14594 6.19625 9.31747C5.60262 9.40204 4.99888 9.38428 4.41125 9.26497V9.26497ZM13.4362 11.1537C13.4211 11.1654 13.4089 11.1803 13.4004 11.1974C13.392 11.2146 13.3875 11.2334 13.3875 11.2525V13.11L11.6812 12C11.6611 11.987 11.6377 11.98 11.6137 11.98C11.6055 11.9787 11.597 11.9787 11.5887 11.98C11.2444 12.0502 10.8939 12.0854 10.5425 12.085C8.25 12.09 6.395 10.6125 6.395 8.79747C6.395 6.98247 8.25 5.49997 10.5425 5.49997C12.835 5.49997 14.69 6.97622 14.69 8.79247C14.69 9.69122 14.25 10.5287 13.4362 11.1537V11.1537Z"/>
</mask>
<path d="M10.5425 5.24997C10.2776 5.24975 10.0132 5.26939 9.75125 5.30872C9.31 3.69622 7.5275 2.53497 5.4575 2.53497C3.0325 2.53497 1.06 4.12497 1.06 6.07747C1.06 7.03247 1.5225 7.92372 2.3625 8.59372V10.625C2.36244 10.6475 2.36844 10.6695 2.37988 10.6889C2.39132 10.7083 2.40777 10.7242 2.4275 10.735C2.44593 10.7449 2.46656 10.7501 2.4875 10.75C2.51145 10.7499 2.53488 10.743 2.555 10.73L4.41125 9.52497C5.01715 9.64122 5.63824 9.65516 6.24875 9.56622C6.68375 11.1537 8.44375 12.345 10.5425 12.345C10.8936 12.3451 11.244 12.3116 11.5887 12.245L13.445 13.45C13.4651 13.463 13.4885 13.4699 13.5125 13.47C13.5334 13.4701 13.5541 13.4649 13.5725 13.455C13.5922 13.4442 13.6087 13.4283 13.6201 13.4089C13.6316 13.3895 13.6376 13.3675 13.6375 13.345V11.3137C14.4775 10.6437 14.94 9.75247 14.94 8.79747C14.94 6.84372 12.9675 5.24997 10.5425 5.24997ZM4.41125 9.26497C4.37931 9.25853 4.34612 9.26481 4.31875 9.28247L2.6125 10.39V8.53372C2.61245 8.51463 2.60803 8.49581 2.59958 8.47869C2.59113 8.46157 2.57887 8.44662 2.56375 8.43497C1.755 7.80997 1.31375 6.97122 1.31375 6.07747C1.31375 4.26247 3.17375 2.78497 5.46125 2.78497C7.41 2.78497 9.08625 3.85872 9.5075 5.35497C7.5825 5.72997 6.14875 7.13247 6.14875 8.79747C6.14877 8.97189 6.16467 9.14594 6.19625 9.31747C5.60262 9.40204 4.99888 9.38428 4.41125 9.26497V9.26497ZM13.4362 11.1537C13.4211 11.1654 13.4089 11.1803 13.4004 11.1974C13.392 11.2146 13.3875 11.2334 13.3875 11.2525V13.11L11.6812 12C11.6611 11.987 11.6377 11.98 11.6137 11.98C11.6055 11.9787 11.597 11.9787 11.5887 11.98C11.2444 12.0502 10.8939 12.0854 10.5425 12.085C8.25 12.09 6.395 10.6125 6.395 8.79747C6.395 6.98247 8.25 5.49997 10.5425 5.49997C12.835 5.49997 14.69 6.97622 14.69 8.79247C14.69 9.69122 14.25 10.5287 13.4362 11.1537V11.1537Z" fill="black"/>
<path d="M10.5425 5.24997L10.5417 6.24997H10.5425V5.24997ZM9.75125 5.30872L8.78671 5.57266L9.0212 6.42958L9.89977 6.29763L9.75125 5.30872ZM2.3625 8.59372H3.3625V8.1122L2.98606 7.81195L2.3625 8.59372ZM2.3625 10.625L3.3625 10.6277V10.625H2.3625ZM2.4275 10.735L1.94749 11.6123L1.9525 11.615L2.4275 10.735ZM2.4875 10.75L2.48491 9.74997L2.48249 9.74999L2.4875 10.75ZM2.555 10.73L3.09759 11.57L3.09949 11.5687L2.555 10.73ZM4.41125 9.52497L4.59967 8.54288L4.20437 8.46704L3.86676 8.68621L4.41125 9.52497ZM6.24875 9.56622L7.2132 9.30195L6.97953 8.44921L6.10459 8.57667L6.24875 9.56622ZM10.5425 12.345L10.5429 11.345H10.5425V12.345ZM11.5887 12.245L12.1332 11.4062L11.7949 11.1866L11.3989 11.2632L11.5887 12.245ZM13.445 13.45L12.9005 14.2887L12.9024 14.29L13.445 13.45ZM13.5125 13.47L13.5175 12.47L13.5151 12.47L13.5125 13.47ZM13.5725 13.455L14.0475 14.335L14.0525 14.3322L13.5725 13.455ZM13.6375 13.345L12.6375 13.345L12.6375 13.3477L13.6375 13.345ZM13.6375 11.3137L13.0139 10.5319L12.6375 10.8322V11.3137H13.6375ZM14.94 8.79747H15.94H14.94ZM4.31875 9.28247L3.77654 8.44223L3.7743 8.44368L4.31875 9.28247ZM2.6125 10.39H1.6125V12.2312L3.15695 11.2288L2.6125 10.39ZM2.6125 8.53372L3.6125 8.53372L3.61249 8.53132L2.6125 8.53372ZM2.56375 8.43497L1.95226 9.22623L1.95375 9.22738L2.56375 8.43497ZM9.5075 5.35497L9.69871 6.33652L10.7643 6.12894L10.4701 5.08397L9.5075 5.35497ZM6.14875 8.79747L5.14875 8.79747L5.14875 8.79763L6.14875 8.79747ZM6.19625 9.31747L6.33728 10.3075L7.36824 10.1606L7.17973 9.13645L6.19625 9.31747ZM13.3875 11.2525L12.3875 11.2501V11.2525H13.3875ZM13.3875 13.11L12.8422 13.9482L14.3875 14.9535V13.11H13.3875ZM11.6812 12L12.2266 11.1617L12.2238 11.16L11.6812 12ZM11.6137 11.98L11.4599 12.9681L11.5351 12.9798L11.6112 12.98L11.6137 11.98ZM11.5887 11.98L11.4349 10.9919L11.4118 10.9955L11.3888 11.0002L11.5887 11.98ZM10.5425 12.085L10.5437 11.085L10.5403 11.085L10.5425 12.085ZM14.69 8.79247H15.69H14.69ZM10.5433 4.24997C10.2285 4.24971 9.91408 4.27305 9.60273 4.31981L9.89977 6.29763C10.1122 6.26572 10.3268 6.24979 10.5417 6.24997L10.5433 4.24997ZM10.7158 5.04478C10.1232 2.87924 7.84231 1.53497 5.4575 1.53497V3.53497C7.21268 3.53497 8.4968 4.51321 8.78671 5.57266L10.7158 5.04478ZM5.4575 1.53497C2.69273 1.53497 0.0599976 3.38181 0.0599976 6.07747H2.06C2.06 4.86814 3.37226 3.53497 5.4575 3.53497V1.53497ZM0.0599976 6.07747C0.0599976 7.37862 0.695813 8.54348 1.73894 9.3755L2.98606 7.81195C2.34918 7.30396 2.06 6.68633 2.06 6.07747H0.0599976ZM1.3625 8.59372V10.625H3.3625V8.59372H1.3625ZM1.3625 10.6222C1.36195 10.8246 1.416 11.0234 1.51895 11.1976L3.24081 10.1802C3.32088 10.3157 3.36292 10.4703 3.36249 10.6277L1.3625 10.6222ZM1.51895 11.1976C1.62192 11.3719 1.76997 11.5151 1.9475 11.6122L2.90749 9.8577C3.04557 9.93325 3.16073 10.0447 3.24081 10.1802L1.51895 11.1976ZM1.9525 11.615C2.11834 11.7045 2.30402 11.7509 2.4925 11.75L2.48249 9.74999C2.62909 9.74925 2.77351 9.78536 2.90249 9.85499L1.9525 11.615ZM2.49009 11.75C2.70566 11.7494 2.91653 11.6869 3.09759 11.57L2.01241 9.88998C2.15323 9.79901 2.31723 9.75041 2.48491 9.74998L2.49009 11.75ZM3.09949 11.5687L4.95574 10.3637L3.86676 8.68621L2.01051 9.89121L3.09949 11.5687ZM4.22283 10.5071C4.93839 10.6443 5.6719 10.6608 6.39291 10.5558L6.10459 8.57667C5.60458 8.64951 5.0959 8.63809 4.59967 8.54288L4.22283 10.5071ZM5.2843 9.8305C5.86843 11.9622 8.11818 13.345 10.5425 13.345V11.345C8.76932 11.345 7.49907 10.3452 7.2132 9.30195L5.2843 9.8305ZM10.5421 13.345C10.9571 13.3451 11.3711 13.3056 11.7786 13.2268L11.3989 11.2632C11.1168 11.3177 10.8302 11.3451 10.5429 11.345L10.5421 13.345ZM11.0443 13.0837L12.9005 14.2887L13.9895 12.6112L12.1332 11.4062L11.0443 13.0837ZM12.9024 14.29C13.0835 14.4069 13.2943 14.4694 13.5099 14.47L13.5151 12.47C13.6828 12.4704 13.8468 12.519 13.9876 12.61L12.9024 14.29ZM13.5075 14.47C13.696 14.4709 13.8816 14.4245 14.0475 14.335L13.0975 12.575C13.2265 12.5054 13.3709 12.4693 13.5175 12.47L13.5075 14.47ZM14.0525 14.3322C14.2301 14.2351 14.3781 14.0919 14.481 13.9176L12.7592 12.9002C12.8393 12.7647 12.9544 12.6533 13.0925 12.5777L14.0525 14.3322ZM14.481 13.9176C14.584 13.7434 14.638 13.5446 14.6375 13.3422L12.6375 13.3477C12.6371 13.1903 12.6791 13.0357 12.7592 12.9002L14.481 13.9176ZM14.6375 13.345V11.3137H12.6375V13.345H14.6375ZM14.2611 12.0955C15.3042 11.2635 15.94 10.0986 15.94 8.79747H13.94C13.94 9.40633 13.6508 10.024 13.0139 10.5319L14.2611 12.0955ZM15.94 8.79747C15.94 6.10195 13.309 4.24997 10.5425 4.24997V6.24997C12.626 6.24997 13.94 7.5855 13.94 8.79747H15.94ZM4.60904 8.28473C4.32162 8.22673 4.02291 8.28324 3.77654 8.44223L4.86096 10.1227C4.66933 10.2464 4.437 10.2903 4.21346 10.2452L4.60904 8.28473ZM3.7743 8.44368L2.06805 9.55118L3.15695 11.2288L4.8632 10.1213L3.7743 8.44368ZM3.6125 10.39V8.53372H1.6125V10.39H3.6125ZM3.61249 8.53132C3.61208 8.35951 3.57232 8.19008 3.49627 8.03602L1.7029 8.92136C1.64375 8.80154 1.61282 8.66976 1.6125 8.53613L3.61249 8.53132ZM3.49627 8.03602C3.42021 7.88196 3.30988 7.74737 3.17374 7.64257L1.95375 9.22738C1.84787 9.14587 1.76206 9.04119 1.7029 8.92136L3.49627 8.03602ZM3.17523 7.64372C2.57487 7.17976 2.31375 6.618 2.31375 6.07747H0.313748C0.313748 7.32445 0.935121 8.44019 1.95227 9.22623L3.17523 7.64372ZM2.31375 6.07747C2.31375 5.01755 3.49863 3.78497 5.46125 3.78497V1.78497C2.84887 1.78497 0.313748 3.5074 0.313748 6.07747H2.31375ZM5.46125 3.78497C7.10499 3.78497 8.27984 4.68444 8.54492 5.62597L10.4701 5.08397C9.89266 3.03301 7.715 1.78497 5.46125 1.78497V3.78497ZM9.31629 4.37342C7.08371 4.80834 5.14875 6.50597 5.14875 8.79747H7.14875C7.14875 7.75898 8.08129 6.6516 9.69871 6.33652L9.31629 4.37342ZM5.14875 8.79763C5.14878 9.03271 5.17021 9.2673 5.21277 9.4985L7.17973 9.13645C7.15913 9.02458 7.14877 8.91106 7.14875 8.79732L5.14875 8.79763ZM6.05522 8.32747C5.57466 8.39593 5.08592 8.38155 4.61022 8.28497L4.21228 10.245C4.91184 10.387 5.63057 10.4082 6.33728 10.3075L6.05522 8.32747ZM12.8262 10.3613C12.6901 10.4661 12.5798 10.6007 12.5037 10.7548L14.2971 11.6401C14.2379 11.7599 14.1521 11.8646 14.0462 11.9461L12.8262 10.3613ZM12.5037 10.7548C12.4277 10.9088 12.3879 11.0782 12.3875 11.2501L14.3875 11.2549C14.3872 11.3885 14.3562 11.5203 14.2971 11.6401L12.5037 10.7548ZM12.3875 11.2525V13.11H14.3875V11.2525H12.3875ZM13.9328 12.2717L12.2266 11.1617L11.1359 12.8382L12.8422 13.9482L13.9328 12.2717ZM12.2238 11.16C12.0428 11.043 11.8319 10.9805 11.6163 10.98L11.6112 12.98C11.4435 12.9795 11.2795 12.9309 11.1387 12.84L12.2238 11.16ZM11.7676 10.9919C11.6574 10.9747 11.5451 10.9747 11.4349 10.9919L11.7426 12.9681C11.6489 12.9827 11.5536 12.9827 11.4599 12.9681L11.7676 10.9919ZM11.3888 11.0002C11.1107 11.0569 10.8276 11.0853 10.5437 11.085L10.5413 13.085C10.9602 13.0855 11.3782 13.0435 11.7886 12.9598L11.3888 11.0002ZM10.5403 11.085C8.57538 11.0893 7.395 9.85794 7.395 8.79747H5.395C5.395 11.367 7.92461 13.0907 10.5447 13.085L10.5403 11.085ZM7.395 8.79747C7.395 7.73518 8.57785 6.49997 10.5425 6.49997V4.49997C7.92214 4.49997 5.395 6.22976 5.395 8.79747H7.395ZM10.5425 6.49997C12.5095 6.49997 13.69 7.73084 13.69 8.79247H15.69C15.69 6.22161 13.1605 4.49997 10.5425 4.49997V6.49997ZM13.69 8.79247C13.69 9.33859 13.4297 9.89785 12.8271 10.3606L14.0454 11.9468C15.0703 11.1596 15.69 10.0439 15.69 8.79247L13.69 8.79247Z" fill="black" mask="url(#path-7-inside-1_390_14)"/>
<path d="M2.85997 4.07752C2.46901 4.3847 2.16166 4.78534 1.96622 5.24252C1.95386 5.27319 1.95415 5.30751 1.96703 5.33797C1.97992 5.36843 2.00435 5.39254 2.03497 5.40502C2.05 5.41142 2.06614 5.41482 2.08247 5.41502C2.10736 5.41514 2.13173 5.40783 2.15244 5.39403C2.17315 5.38022 2.18926 5.36054 2.19872 5.33752C2.37712 4.91895 2.65831 4.5522 3.01622 4.27127C3.03073 4.26166 3.04307 4.24913 3.05246 4.23447C3.06184 4.21982 3.06807 4.20337 3.07073 4.18617C3.07339 4.16898 3.07243 4.15142 3.06792 4.13461C3.0634 4.11781 3.05542 4.10213 3.0445 4.08858C3.03358 4.07504 3.01995 4.06392 3.00448 4.05595C2.98901 4.04798 2.97205 4.04332 2.95468 4.04228C2.93731 4.04124 2.91992 4.04383 2.90361 4.0499C2.8873 4.05597 2.87244 4.06538 2.85997 4.07752Z" fill="black"/>
<path d="M4.65124 3.28372C4.47066 3.3158 4.29236 3.35965 4.11749 3.41497C4.08937 3.42421 4.06544 3.44313 4.04996 3.46835C4.03447 3.49358 4.02845 3.52348 4.03295 3.55274C4.03745 3.582 4.05219 3.6087 4.07453 3.62811C4.09688 3.64752 4.12539 3.65837 4.15499 3.65872C4.16778 3.65909 4.18051 3.65697 4.19249 3.65247C4.35645 3.60063 4.52343 3.55889 4.69249 3.52747C4.72564 3.52167 4.75513 3.50294 4.77447 3.47539C4.79381 3.44785 4.80142 3.41375 4.79562 3.3806C4.78981 3.34745 4.77108 3.31796 4.74354 3.29862C4.71599 3.27928 4.68189 3.27167 4.64874 3.27747L4.65124 3.28372Z" fill="black"/>
</svg>
