<svg width="24" height="24" viewBox="0 0 24 24" fill="none" xmlns="http://www.w3.org/2000/svg">
<path d="M17.5407 1.09666C16.4639 1.50282 16.0672 2.69296 16.6434 3.81698C16.8701 4.26092 18.9008 6.38617 19.2976 6.59397C19.477 6.68843 19.6187 6.69788 19.7698 6.6412C20.1477 6.49007 22.3674 4.16647 22.5752 3.70363C22.9908 2.77797 22.7263 1.71062 21.9518 1.23834C21.4606 0.926639 20.6294 0.926639 20.0154 1.2289L19.5715 1.44615L19.1842 1.24779C18.6742 0.983313 18.0035 0.926639 17.5407 1.09666ZM18.9575 2.06011C19.5054 2.44737 19.5904 2.47571 19.7982 2.33403C20.2327 2.01288 20.7049 1.81452 21.0167 1.81452C21.4417 1.81452 21.8951 2.19234 21.9801 2.61739C22.0746 3.14635 21.7629 3.65641 20.6294 4.77098L19.5998 5.7911L18.523 4.69542C17.928 4.0909 17.3896 3.50528 17.3234 3.39193C17.2573 3.27858 17.2101 3.00466 17.2006 2.77797C17.2006 2.44737 17.2573 2.31514 17.484 2.079C17.7485 1.81452 17.8241 1.79563 18.2397 1.83341C18.4947 1.86175 18.8158 1.96565 18.9575 2.06011Z" fill="#FFC700"/>
<path d="M7.42451 1.43666C2.50338 2.18286 -0.377519 7.40626 1.66272 11.8929C2.43726 13.5742 3.72185 14.8682 5.41261 15.6428C6.13992 15.9828 7.2356 16.2662 7.79289 16.2662C8.10459 16.2662 8.13293 16.2945 8.22739 16.6629C8.54853 17.9192 8.86968 18.637 9.51198 19.5344C10.3526 20.7245 11.7128 21.7068 13.2335 22.2263C14.0836 22.5191 14.2064 22.538 15.5005 22.5475C16.6812 22.5475 16.9645 22.5191 17.5785 22.3302C19.666 21.6785 21.2717 20.3467 22.2068 18.4859C23.208 16.5118 23.2647 14.0276 22.3579 12.044C21.3756 9.89988 19.3637 8.30358 17.0212 7.80297C16.6812 7.73685 16.2844 7.67073 16.1428 7.67073C15.9161 7.67073 15.8688 7.61406 15.7838 7.26457C15.1793 4.92207 13.9231 3.27855 11.9112 2.20175C10.721 1.55945 8.77523 1.23831 7.42451 1.43666ZM10.5132 2.50401C12.5251 3.19354 14.1309 4.78983 14.8015 6.78285C14.9243 7.16067 15.0282 7.51016 15.0282 7.55738C15.0282 7.60461 14.8487 7.67073 14.6315 7.69907C14.4048 7.73685 14.0931 7.78408 13.9325 7.82186C13.6491 7.87853 13.6302 7.85964 13.5736 7.53849C13.4413 6.83952 12.799 5.75328 12.1284 5.10154C11.0799 4.09086 9.89925 3.60914 8.46352 3.60914C6.98057 3.60914 5.82821 4.09086 4.77976 5.15821C4.02411 5.91386 3.58017 6.68839 3.36292 7.58572C2.93787 9.41816 3.44793 11.2223 4.77031 12.5446C7.12225 14.8966 10.806 14.5565 12.8179 11.8079C13.0446 11.5056 13.3091 11.2884 13.6397 11.1278C14.1686 10.8822 14.8393 10.7216 14.8393 10.8444C14.8393 10.8822 14.6409 11.3262 14.4048 11.8173C14.0364 12.5635 13.8286 12.8469 13.1485 13.527C12.4968 14.1787 12.1756 14.4243 11.5333 14.736C10.3715 15.3027 9.71034 15.4539 8.36907 15.4539C7.39618 15.4539 7.12225 15.4161 6.47996 15.1988C5.41261 14.8494 4.60974 14.3487 3.78797 13.527C2.96621 12.7052 2.47504 11.9023 2.11611 10.835C1.89886 10.1738 1.86108 9.92822 1.86108 8.85143C1.86108 7.78408 1.89886 7.52905 2.10666 6.8962C2.82453 4.75205 4.43027 3.14631 6.52718 2.48512C7.40562 2.2112 7.50008 2.20175 8.69966 2.23009C9.56865 2.25843 9.92759 2.3151 10.5132 2.50401ZM9.44586 4.50647C10.3054 4.71427 11.0611 5.14877 11.675 5.79107C12.1945 6.32946 12.6857 7.21734 12.8085 7.84075C12.8652 8.13356 12.8557 8.15245 12.4307 8.33192C11.4011 8.77586 10.1921 9.76764 9.49309 10.75C9.04915 11.3734 8.48242 12.5257 8.36907 13.0264C8.3124 13.3097 8.28406 13.3286 8.01014 13.2814C7.35839 13.168 6.64998 12.9319 6.25326 12.7052C3.71241 11.2317 3.26847 7.80297 5.33704 5.72495C6.47996 4.58203 7.93457 4.15698 9.44586 4.50647ZM17.2951 8.71919C19.5148 9.30481 21.2717 11.0522 21.9896 13.3947C22.2257 14.1787 22.2257 16.0867 21.9801 16.8802C21.3945 18.7693 20.1477 20.2711 18.4758 21.0834C15.321 22.623 11.6183 21.5274 9.80479 18.5142C9.4742 17.9569 8.94525 16.5023 9.02081 16.3701C9.04915 16.3229 9.30418 16.2662 9.58755 16.2284C9.87091 16.2001 10.1543 16.1528 10.2298 16.1245C10.3149 16.0962 10.4188 16.2851 10.5604 16.7668C10.9572 18.0703 12.0151 19.2699 13.2902 19.8744C13.9136 20.1672 14.9526 20.4222 15.5477 20.4222C16.1428 20.4222 17.1818 20.1672 17.8052 19.8744C19.0142 19.3077 20.0154 18.2025 20.4877 16.9368C20.7994 16.0962 20.875 14.7643 20.6577 13.9048C19.9682 11.1467 17.2101 9.38982 14.4898 9.966C13.2052 10.2399 11.9962 11.0333 11.2689 12.0629C11.0233 12.4218 10.7777 12.6391 10.4471 12.7997C9.97481 13.0358 9.25695 13.2625 9.20028 13.2058C9.13416 13.1397 9.55921 12.129 9.84258 11.6851C11.0138 9.82432 12.799 8.71919 14.9337 8.52083C15.8311 8.44527 16.4072 8.49249 17.2951 8.71919ZM16.6812 10.835C18.353 11.2789 19.6471 12.7052 19.9399 14.481C20.2988 16.6251 18.8253 18.8637 16.6812 19.4305C15.5855 19.7138 14.3292 19.5532 13.3752 19.0054C12.4023 18.4481 11.4105 17.1257 11.2122 16.1245C11.1555 15.8506 11.1744 15.8222 11.7222 15.5672C13.3847 14.7738 14.8771 13.1397 15.4721 11.4301C15.7744 10.5989 15.7649 10.5989 16.6812 10.835Z" fill="#FFC700"/>
<path d="M2.1822 17.4847C2.00273 17.5791 1.72881 17.8153 1.57768 18.0042C1.34154 18.2875 1.28487 18.4576 1.25653 18.9582C1.19986 19.8649 1.41711 20.2333 2.88117 21.7163C3.93907 22.7836 4.16576 22.9725 4.41135 22.9725C4.65693 22.9725 4.89307 22.7742 6.02654 21.6218C7.16001 20.4695 7.36781 20.2144 7.51894 19.7705C8.07623 18.0797 6.47993 16.7196 4.88363 17.5319L4.43024 17.7586L3.99574 17.5319C3.45735 17.2485 2.66392 17.2202 2.1822 17.4847ZM3.46679 18.2025C3.64626 18.2781 3.91073 18.4292 4.04297 18.5331C4.36412 18.7882 4.46802 18.7787 4.97808 18.4103C5.59204 17.9853 6.14933 17.9853 6.5366 18.4198C6.8483 18.7693 6.89553 19.2226 6.66884 19.7044C6.59327 19.8649 6.04543 20.4695 5.45981 21.0456L4.4019 22.0941L3.30622 20.9417C2.06885 19.6666 1.86105 19.2699 2.08774 18.7126C2.21998 18.4009 2.67337 18.0608 2.96618 18.0608C3.06063 18.0608 3.28733 18.127 3.46679 18.2025Z" fill="#FFC700"/>
</svg>
