<svg width="24" height="24" viewBox="0 0 24 24" fill="none" xmlns="http://www.w3.org/2000/svg">
<path d="M4.59145 2.11987C4.51624 2.19508 4.47863 2.69337 4.47863 3.73696V5.25063L2.86154 6.09679C1.97778 6.55747 1.19744 6.99935 1.13162 7.06516C1.0188 7.16858 1 8.47542 1 14.6147C1 19.56 1.02821 22.1079 1.09402 22.2301C1.18803 22.4088 1.41368 22.4088 12 22.4088C22.5863 22.4088 22.812 22.4088 22.906 22.2301C22.9718 22.1079 23 19.56 23 14.6147C23 8.47542 22.9812 7.16858 22.8684 7.06516C22.8026 6.99935 22.0222 6.55747 21.1385 6.09679L19.5214 5.25063V3.73696C19.5214 2.69337 19.4838 2.19508 19.4085 2.11987C19.2487 1.96004 4.75128 1.96004 4.59145 2.11987ZM18.7692 6.50106V10.1489L15.4316 13.1293C13.5983 14.7652 12.0564 16.1096 12 16.1096C11.9436 16.1096 10.4017 14.7652 8.56838 13.1293L5.23077 10.1489V6.50106V2.8532H12H18.7692V6.50106ZM4.36581 8.59764L4.33761 9.35918L3.27521 8.40021C2.68291 7.87371 2.24103 7.40363 2.28803 7.36602C2.32564 7.31901 2.80513 7.05576 3.35043 6.76431L4.33761 6.24722L4.36581 7.04636C4.37521 7.48824 4.37521 8.18397 4.36581 8.59764ZM21.712 7.35662C21.7778 7.42243 20.7718 8.3908 19.8316 9.18995L19.6154 9.36858V7.7985V6.21901L20.6308 6.75491C21.1855 7.04636 21.6744 7.31901 21.712 7.35662ZM5.69145 11.6438C7.6 13.3455 9.16068 14.7746 9.15128 14.8028C9.13248 14.878 1.94957 21.3746 1.89316 21.3746C1.86496 21.3746 1.84615 18.4318 1.84615 14.831C1.84615 8.372 1.84615 8.28739 2.02479 8.40961C2.12821 8.48482 3.7735 9.93268 5.69145 11.6438ZM22.135 18.0934L22.1068 21.4122L18.4872 18.131C16.494 16.3352 14.8581 14.831 14.8487 14.8028C14.8393 14.7746 16.4658 13.2891 18.4684 11.5122L22.1068 8.26858L22.135 11.5216C22.1444 13.3173 22.1444 16.2694 22.135 18.0934ZM10.8248 16.2506C11.3701 16.7395 11.8966 17.1438 12 17.1438C12.1034 17.1438 12.6299 16.7395 13.1752 16.2506L14.1718 15.3481L14.5291 15.6583C14.7265 15.8276 16.2872 17.2378 17.9983 18.7891L21.1197 21.6096L16.5598 21.6378C14.0496 21.6472 9.95043 21.6472 7.44017 21.6378L2.88034 21.6096L6.34017 18.4882C8.23932 16.7677 9.8 15.3575 9.8094 15.3575C9.82821 15.3575 10.2795 15.7617 10.8248 16.2506Z" fill="white"/>
<path d="M9.2077 4.35747C7.91026 4.62072 7.12052 5.6267 7.11111 6.99935C7.11111 7.63867 7.14872 7.78909 7.45898 8.40961C7.75983 9.01132 8.05129 9.35918 9.68718 11.0045L11.5769 12.913H12H12.4231L14.3128 11.0045C15.9487 9.35918 16.2402 9.01132 16.541 8.40961C16.8513 7.78909 16.8889 7.63867 16.8889 6.99935C16.8889 6.172 16.7103 5.70191 16.1932 5.12841C15.3094 4.15063 13.5795 4.05661 12.3855 4.93097L12 5.20362L11.6145 4.93097C10.9658 4.45149 9.94103 4.20704 9.2077 4.35747ZM10.5051 5.25063C10.7214 5.33525 11.1256 5.56089 11.3889 5.76773C11.6615 5.97456 11.9342 6.14379 12 6.14379C12.0658 6.14379 12.3385 5.97456 12.6111 5.76773C13.4573 5.10961 14.3128 4.94978 15.065 5.28824C15.7513 5.5985 16.212 6.46345 16.0991 7.21559C15.9675 8.04294 15.6479 8.47542 13.7863 10.3276L12 12.1139L10.2137 10.3276C8.35214 8.47542 8.03248 8.04294 7.90086 7.21559C7.86325 6.98995 7.89146 6.67029 7.95727 6.46345C8.31453 5.35405 9.36752 4.85576 10.5051 5.25063Z" fill="white"/>
<path d="M13.6735 5.64551C13.4667 5.69252 13.4667 5.79594 13.6453 6.14381C13.7675 6.37885 13.8333 6.41645 14.153 6.39765C14.3504 6.39765 14.5855 6.44466 14.6701 6.51047C14.8675 6.6703 14.8675 7.1968 14.6701 7.57286C14.5196 7.86432 14.5196 7.87372 14.7641 8.08996C14.9051 8.21218 15.0649 8.3062 15.112 8.3062C15.1684 8.3062 15.3188 8.07116 15.4504 7.7797C15.8453 6.90534 15.6385 6.1156 14.9051 5.74893C14.6043 5.5891 14.0496 5.5421 13.6735 5.64551Z" fill="white"/>
<path d="M13.9744 8.3532L13.7487 8.59765L14.0496 8.8985L14.3504 9.19936L14.6043 8.93611L14.8581 8.68226L14.5855 8.40021C14.435 8.24978 14.2846 8.11816 14.2564 8.11816C14.2188 8.11816 14.0966 8.22158 13.9744 8.3532Z" fill="white"/>
<path d="M7.48718 20.1523V20.5284H12H16.5128V20.1523V19.7763H12H7.48718V20.1523Z" fill="white"/>
</svg>
