<svg width="16" height="16" viewBox="0 0 16 16" fill="none" xmlns="http://www.w3.org/2000/svg">
<path d="M5.74197 1.04844C5.37076 1.20411 5.14324 1.55736 5.14324 1.98845C5.14324 2.45546 5.37076 2.7189 5.9635 2.94044C6.08924 2.98235 5.93956 3.13802 4.44272 4.49714L2.78423 6.01194H1.98791C1.23949 6.01194 1.19159 6.01793 1.10777 6.14366C0.964076 6.34723 0.964076 9.19122 1.10777 9.32893C1.17962 9.40676 1.35325 9.42472 1.98791 9.42472L2.77824 9.43071L4.42476 10.9335C5.32885 11.7598 6.07726 12.4603 6.08924 12.4783C6.09523 12.5022 6.0114 12.5381 5.89166 12.5561C5.04744 12.6938 4.86782 13.9033 5.62223 14.3284C6.08325 14.5858 6.61014 14.4421 6.92148 13.9811C7.06518 13.7655 7.10709 13.3404 6.99931 13.1429C6.94543 13.0411 6.98734 13.0291 7.49626 13.0052C8.16086 12.9632 8.68176 12.8016 9.20266 12.4663C10.3462 11.7239 11.1066 10.245 11.2803 8.41885C11.3162 8.05961 11.3401 7.98776 11.4299 7.98776C11.5257 7.98776 11.5317 8.00573 11.4539 8.20929C11.2982 8.65835 11.394 9.10141 11.7233 9.43071C12.1005 9.8139 12.6454 9.87378 13.1842 9.59237C13.4716 9.44867 14.8128 8.1614 14.9445 7.90394C15.0164 7.76623 15.0164 7.70636 14.9565 7.56266C14.8607 7.32916 13.3399 5.91016 13.0645 5.79041C12.5795 5.59283 11.885 5.7485 11.6215 6.11373C11.3761 6.46698 11.3282 6.81424 11.4659 7.31119C11.4958 7.41298 11.4778 7.4489 11.412 7.4489C11.3461 7.4489 11.3162 7.34113 11.2863 7.01183C11.1006 5.07193 10.1726 3.43738 8.91526 2.8147C8.43029 2.58119 7.80162 2.41954 7.32862 2.41954H7.02925V2.00641C7.02925 1.55736 6.94543 1.38373 6.6281 1.14423C6.44249 1.00653 5.9635 0.952639 5.74197 1.04844ZM6.38262 1.61125C6.55625 1.73099 6.60415 1.9645 6.49638 2.17406C6.28682 2.56922 5.73599 2.47342 5.64618 2.03036C5.57433 1.64118 6.04134 1.37175 6.38262 1.61125ZM7.46633 3.27573C7.90939 3.49127 8.49615 4.04809 8.78953 4.53906C9.20266 5.2276 9.57387 6.5029 9.57387 7.2154V7.4489L6.83766 7.43693L4.10743 7.41897L3.89189 6.77233C3.77214 6.41908 3.64042 6.10774 3.59851 6.08379C3.55061 6.05385 4.09545 5.52098 5.18515 4.52708C6.5323 3.29968 6.86161 3.02426 6.96339 3.0542C7.03524 3.07216 7.25677 3.17394 7.46633 3.27573ZM8.66978 3.26974C9.76547 3.81459 10.6217 5.33537 10.7534 6.98189L10.7893 7.4489H10.448C10.2145 7.4489 10.1127 7.42495 10.1127 7.37107C10.1127 7.32916 10.0828 7.06571 10.0469 6.7903C9.87324 5.3713 9.30444 4.10797 8.50812 3.35955C8.34048 3.20388 8.21475 3.07814 8.23869 3.07814C8.25666 3.07814 8.44825 3.16795 8.66978 3.26974ZM12.9148 6.30532C13.0346 6.37118 13.4237 6.71246 13.783 7.0717L14.4236 7.72432L13.6932 8.44879C13.0944 9.03555 12.9148 9.18523 12.7352 9.21517C11.9928 9.35288 11.6455 8.64637 12.1484 8.0177C12.2502 7.89197 12.328 7.77222 12.328 7.74827C12.328 7.71833 12.2323 7.56266 12.1185 7.38903C11.6156 6.63462 12.1484 5.91016 12.9148 6.30532ZM2.19747 6.95794C2.26932 7.18546 2.32919 7.38304 2.32919 7.40699C2.32919 7.43094 2.15556 7.4489 1.94001 7.4489H1.55084V6.99985V6.5508H1.80829H2.06575L2.19747 6.95794ZM3.43086 6.99985L3.58054 7.45489L3.24525 7.43693L2.90996 7.41897L2.80818 7.1196C2.59263 6.49093 2.58066 6.5508 2.94589 6.5508H3.27519L3.43086 6.99985ZM2.2274 8.43681L2.07772 8.88586H1.81428H1.55084V8.43681V7.98776H1.96396H2.38308L2.2274 8.43681ZM3.42487 8.43681L3.27519 8.88586H2.95187C2.77225 8.88586 2.62856 8.87389 2.62856 8.8679C2.62856 8.84994 2.82614 8.25121 2.89799 8.05961C2.91595 8.0177 3.04168 7.98776 3.25124 7.98776H3.58054L3.42487 8.43681ZM9.57387 8.22127C9.57387 8.89185 9.26852 10.0055 8.87934 10.7419C8.49615 11.4784 7.69385 12.1849 7.04123 12.3585L6.81969 12.4244L5.20311 10.9455C4.311 10.1312 3.58653 9.44867 3.58653 9.42472C3.58653 9.40676 3.61048 9.36485 3.64042 9.32893C3.67035 9.29899 3.77813 9.00561 3.8859 8.67631C3.99367 8.347 4.09545 8.05961 4.10743 8.02968C4.1194 8.00573 5.35878 7.98776 6.85562 7.98776H9.57387V8.22127ZM10.7534 8.44879C10.6995 9.14931 10.4959 9.8618 10.1666 10.5503C9.80738 11.2988 9.28049 11.8735 8.69373 12.1729C8.49016 12.2747 8.29857 12.3585 8.27462 12.3585C8.24468 12.3585 8.41831 12.155 8.65781 11.9095C9.38228 11.1611 9.88521 9.98155 10.0469 8.64637C10.0828 8.37095 10.1127 8.10751 10.1127 8.0656C10.1127 8.01171 10.2145 7.98776 10.448 7.98776H10.7893L10.7534 8.44879ZM6.41256 13.1967C6.55625 13.3464 6.58619 13.4123 6.55026 13.544C6.50237 13.7476 6.35268 13.8973 6.14911 13.9452C6.01739 13.9811 5.95153 13.9512 5.80185 13.8075C5.57433 13.5799 5.57433 13.4123 5.79586 13.1908C6.01739 12.9692 6.18504 12.9692 6.41256 13.1967Z" fill="black"/>
<path d="M5.96351 4.79647L5.08337 5.61674L5.24503 5.78438C5.33484 5.87419 5.42465 5.95203 5.4486 5.95203C5.47255 5.95203 5.88568 5.5868 6.36466 5.13775L7.23283 4.31748L7.11308 4.14984C7.04722 4.05404 6.95741 3.9762 6.9155 3.9762C6.87359 3.9762 6.4425 4.34742 5.96351 4.79647Z" fill="black"/>
<path d="M5.24503 9.6522L5.08337 9.81984L5.98148 10.676L6.88556 11.5382L7.06518 11.3646C7.16098 11.2748 7.23283 11.179 7.22684 11.149C7.20289 11.0892 5.48453 9.48455 5.43663 9.48455C5.41867 9.48455 5.33484 9.56239 5.24503 9.6522Z" fill="black"/>
</svg>
