<svg width="16" height="16" viewBox="0 0 16 16" fill="none" xmlns="http://www.w3.org/2000/svg">
<path d="M7.73303 2.80095V3.60193H8.00002H8.26702V2.80095V1.99998H8.00002H7.73303V2.80095Z" fill="black"/>
<path d="M5.7506 2.30707L5.53033 2.47394L6.00424 3.10804C6.26456 3.44846 6.49818 3.73547 6.52488 3.73547C6.5449 3.73547 6.6517 3.66205 6.76517 3.57528L6.95874 3.41508L6.47816 2.7743C6.21116 2.42054 5.9909 2.13352 5.97755 2.13352C5.97087 2.13352 5.86407 2.21362 5.7506 2.30707Z" fill="black"/>
<path d="M9.52852 2.7743L9.04126 3.41508L9.23483 3.57528C9.3483 3.66205 9.4551 3.73547 9.47512 3.73547C9.50182 3.73547 9.72876 3.45513 9.98908 3.10804C10.4229 2.53401 10.4496 2.47394 10.3495 2.38716C10.0024 2.10015 10.0492 2.08012 9.52852 2.7743Z" fill="black"/>
<path d="M2.67351 2.80762C2.49997 2.89439 2.3064 3.06794 2.20628 3.22146L2.02606 3.49512L2.00603 6.75242L1.98601 10.0097H1.55882C1.19171 10.0097 1.11829 10.0297 1.05821 10.1432C1.00481 10.2367 0.991465 10.8441 1.00481 12.0122C1.02484 13.9145 1.02484 13.9011 1.4854 14.2415C1.66562 14.3817 1.71234 14.3817 8 14.3817C14.2877 14.3817 14.3344 14.3817 14.5146 14.2415C14.9752 13.9011 14.9752 13.9145 14.9952 12.0122C15.0085 10.8441 14.9952 10.2367 14.9418 10.1432C14.8817 10.0297 14.8083 10.0097 14.4412 10.0097H14.0073V6.82585C14.0073 3.72207 14.0006 3.63529 13.8671 3.34828C13.7804 3.17473 13.6135 2.98784 13.4533 2.88104C13.1997 2.7075 13.1329 2.70082 12.2585 2.6808L11.3374 2.6541V2.92109V3.18808L12.1651 3.20811C12.8793 3.23481 13.0128 3.25483 13.1396 3.3683C13.4667 3.65532 13.4733 3.72874 13.4733 6.97269V10.0097H13.1062H12.7391V9.57586C12.7391 9.0352 12.6123 8.71481 12.3253 8.54127C12.1384 8.4278 11.9915 8.40777 11.3174 8.40777H10.5364L11.0037 7.4733C11.2573 6.95934 11.4709 6.49878 11.4709 6.45206C11.4709 6.39866 11.2373 5.97147 10.9503 5.49756L10.423 4.63651H8H5.57705L5.04974 5.49756C4.76272 5.97147 4.52911 6.39866 4.52911 6.45206C4.52911 6.49878 4.7427 6.95934 4.99634 7.4733L5.46358 8.40777H4.68263C4.00847 8.40777 3.86163 8.4278 3.67473 8.54127C3.38772 8.71481 3.2609 9.0352 3.2609 9.57586V10.0097H2.89378H2.51999L2.54002 6.8392L2.56004 3.66867L2.78031 3.45507L2.9939 3.23481L3.82825 3.20811L4.6626 3.18808V2.92776V2.66745H3.8149C3.074 2.66745 2.92048 2.68747 2.67351 2.80762ZM7.13228 5.17717C7.13228 5.1972 7.00546 5.42414 6.85861 5.67778L6.58494 6.13834H5.95751H5.33008L5.63712 5.63773L5.93749 5.13712H6.53822C6.86529 5.13712 7.13228 5.15715 7.13228 5.17717ZM8.44054 5.63773L8.72755 6.10497L8.36044 6.12499C8.1602 6.13834 7.83313 6.13834 7.63289 6.12499L7.27245 6.10497L7.55279 5.61771C7.92658 4.97693 8.04005 4.9836 8.44054 5.63773ZM10.3629 5.63773L10.6699 6.13834H10.0425H9.41506L9.14139 5.67778C8.99454 5.42414 8.86772 5.1972 8.86772 5.17717C8.86772 5.15715 9.13472 5.13712 9.46178 5.13712H10.0625L10.3629 5.63773ZM6.93203 7.54005C7.1523 7.98059 7.33252 8.35437 7.33252 8.3744C7.33252 8.39442 7.05218 8.40777 6.71177 8.40777H6.09768L5.67717 7.57342L5.26333 6.73907H5.89744H6.53155L6.93203 7.54005ZM8.42051 7.50667C8.20692 7.92719 8.02002 8.27428 8 8.27428C7.97998 8.27428 7.79308 7.92719 7.57949 7.50667L7.19903 6.73907H8H8.80098L8.42051 7.50667ZM10.3228 7.57342L9.90232 8.40777H9.28824C8.94782 8.40777 8.66748 8.39442 8.66748 8.3744C8.66748 8.35437 8.8477 7.98059 9.06797 7.54005L9.46846 6.73907H10.1026H10.7367L10.3228 7.57342ZM12.0116 9.00183C12.105 9.02185 12.2051 9.37562 12.2051 9.67598V10.0097H8H3.79488V9.66931C3.79488 9.35559 3.87498 9.0886 4.0018 9.0085C4.04185 8.9818 11.8714 8.97513 12.0116 9.00183ZM14.4078 12.0722C14.4078 13.3738 14.3945 13.5874 14.2943 13.6942C14.1942 13.8077 13.9072 13.8144 8.01335 13.8144C2.3598 13.8144 1.82581 13.8077 1.71234 13.7009C1.60555 13.6074 1.5922 13.4806 1.5922 12.6997V11.8119H5.06309H8.53398V11.5449V11.2779H5.06309H1.5922V10.9242V10.5771H8H14.4078V12.0722Z" fill="black"/>
<path d="M9.33496 11.545V11.812H10.0024H10.6699V11.545V11.278H10.0024H9.33496V11.545Z" fill="black"/>
</svg>
