<svg width="20" height="20" viewBox="0 0 20 20" fill="none" xmlns="http://www.w3.org/2000/svg">
<path d="M7.2576 3.10449C6.40784 3.37487 5.78983 4.10103 5.68168 4.96624L5.63533 5.35249L3.77358 5.39112C1.91957 5.42974 1.91184 5.42974 1.60284 5.63832C1.43288 5.74647 1.23203 5.9705 1.14706 6.14045C1.00801 6.41855 1.00028 6.67348 1.00028 11.8029C1.00028 17.8053 0.96938 17.4345 1.55649 17.8826L1.83459 18.0989H10H18.1654L18.4435 17.8826C19.0306 17.4345 18.9997 17.8053 18.9997 11.8029C18.9997 6.67348 18.992 6.41855 18.8529 6.14045C18.768 5.9705 18.5671 5.74647 18.3972 5.63832L18.0882 5.42974L16.2032 5.40657L14.326 5.38339V5.05894C14.326 4.88126 14.2411 4.55681 14.1406 4.34051C13.5072 2.98089 11.8231 2.59464 10.4172 3.49847L10.0077 3.76112L9.55967 3.49075C8.77171 3.01952 7.9683 2.88047 7.2576 3.10449ZM8.87986 3.877C9.09617 3.97743 9.39744 4.16283 9.55194 4.30188C9.70645 4.43321 9.9073 4.54136 10 4.54136C10.0927 4.54136 10.2936 4.43321 10.4481 4.30188C10.8807 3.92335 11.5064 3.66842 12.0085 3.66842C13.1132 3.66842 13.878 4.64951 13.6385 5.74647C13.4917 6.38765 13.0746 6.92841 11.4678 8.51978L10 9.98754L8.37773 8.35755C6.66276 6.63486 6.43101 6.31813 6.32286 5.53017C6.23016 4.87354 6.60869 4.1551 7.21897 3.83838C7.7211 3.58345 8.23868 3.59117 8.87986 3.877ZM5.97523 6.61168C6.19926 7.04428 6.53144 7.42281 7.96058 8.8674C9.65237 10.5669 9.691 10.6055 10 10.6055C10.309 10.6055 10.3476 10.5669 12.0394 8.8674C13.4686 7.42281 13.8007 7.04428 14.0248 6.61168L14.2874 6.08637H16.0487H17.8101L13.9475 9.52404C11.8231 11.4167 10.0464 12.9617 10 12.9617C9.95365 12.9617 8.17688 11.4167 6.05248 9.52404L2.18994 6.08637H3.95126H5.71258L5.97523 6.61168ZM4.97097 9.44678C6.45419 10.76 7.67475 11.857 7.67475 11.8802C7.67475 11.9652 1.88866 17.0946 1.79596 17.0946C1.71871 17.0946 1.69554 16.0749 1.67236 11.8184L1.65691 6.53443L1.95819 6.79708C2.12814 6.93613 3.48003 8.1258 4.97097 9.44678ZM18.3045 16.9556C18.2813 17.056 18.2349 17.1332 18.1963 17.1332C18.1345 17.1332 12.3639 11.9652 12.3407 11.8879C12.333 11.8647 13.6771 10.6519 15.3149 9.19958L18.3045 6.54988L18.3276 11.6716C18.3354 14.4835 18.3276 16.8629 18.3045 16.9556ZM9.04209 13.0776C9.49014 13.4793 9.92275 13.8115 10 13.8115C10.0773 13.8115 10.5099 13.4793 10.9656 13.0776L11.7922 12.336L12.0703 12.5832C12.2248 12.7222 13.5149 13.881 14.9363 15.1556L17.5165 17.4809L13.7621 17.504C11.6918 17.5118 8.30821 17.5118 6.23789 17.504L2.47577 17.4809L5.32633 14.9084C6.89452 13.5025 8.19233 12.3437 8.20006 12.3437C8.20778 12.3437 8.58631 12.6759 9.04209 13.0776Z" fill="white"/>
<path d="M11.6377 4.15532C11.2901 4.2403 11.2901 4.24802 11.4368 4.56475C11.5682 4.83513 11.5836 4.84286 11.8926 4.79651C12.4875 4.71926 12.7269 5.20594 12.3948 5.84712L12.248 6.14067L12.4179 6.29517C12.7269 6.57327 12.7656 6.56555 12.9896 6.18702C13.399 5.48404 13.2368 4.58793 12.6342 4.27893C12.3484 4.12442 11.939 4.07807 11.6377 4.15532Z" fill="white"/>
<path d="M11.7768 6.58859L11.5914 6.78944L11.8386 7.02892L12.078 7.27612L12.2789 7.09072C12.5184 6.86669 12.5184 6.77399 12.2944 6.56542C12.0626 6.34911 12.0008 6.34911 11.7768 6.58859Z" fill="white"/>
<path d="M6.29193 16.2835V16.5925H9.99997H13.708V16.2835V15.9745H9.99997H6.29193V16.2835Z" fill="white"/>
</svg>
