<svg width="24" height="24" viewBox="0 0 24 24" fill="none" xmlns="http://www.w3.org/2000/svg">
<path d="M9.78212 1.12342C8.85642 1.46347 8.28967 2.22859 8.28967 3.15428C8.28967 3.47544 8.25189 3.51322 7.60957 3.87217C5.41814 5.09068 3.83123 7.14043 3.23615 9.53023L3 10.4654V16.6713C3 22.2538 3.01889 22.8866 3.15113 22.9433C3.23615 22.9717 4.56801 23 6.11713 23C8.78086 23 8.95088 22.9906 9.03589 22.8205C9.11146 22.6883 8.97922 22.1971 8.47859 20.6763C8.04408 19.3728 7.84572 18.6832 7.91184 18.6171C7.96851 18.5605 8.0063 18.1354 8.0063 17.6725C8.0063 16.8224 8.01574 16.8035 8.44081 16.1045C9.4704 14.4137 10.5378 11.9484 11.3596 9.38854L11.8035 8L12.0775 8.1039C12.2758 8.17947 12.427 8.17947 12.6348 8.1039C12.7953 8.04723 12.9181 8.00945 12.9181 8.02834C12.9181 8.04723 13.0882 8.62343 13.3054 9.32242C14.0233 11.6839 15.204 14.3948 16.2809 16.1612C16.6965 16.8413 16.6965 16.8508 16.6965 17.7481C16.6965 18.2393 16.7343 18.6644 16.7815 18.7021C16.8287 18.7305 16.5642 19.6373 16.1958 20.7236C15.6102 22.4238 15.5346 22.7072 15.648 22.8489C15.7613 22.9811 16.1014 23 18.6234 23C20.7204 23 21.5044 22.9717 21.5894 22.8866C21.7689 22.7072 21.75 11.2021 21.5611 10.1253C21.0888 7.4238 19.3319 5.01511 16.9704 3.81549C16.4414 3.55101 16.4131 3.52267 16.4131 3.20151C16.4131 2.32305 15.9597 1.62405 15.1285 1.21788C14.6845 1.00063 14.5334 0.972292 14.0327 1.01952C13.6549 1.04786 13.2582 1.17065 12.8992 1.35012L12.3514 1.64295L11.7846 1.34068C11.114 1.00063 10.33 0.915617 9.78212 1.12342ZM11.3596 2.03967C11.5674 2.15302 11.8224 2.32305 11.9358 2.41751C12.0397 2.51196 12.2286 2.59698 12.3514 2.59698C12.4742 2.59698 12.6631 2.51196 12.767 2.41751C13.6549 1.61461 14.9868 1.67128 15.4402 2.53086C15.6669 2.95592 15.6385 3.59824 15.3835 4.09887C15.2607 4.33501 14.5428 5.14735 13.7588 5.94081L12.3514 7.36713L10.9534 5.95025C9.55542 4.54282 9.21536 4.07997 9.09257 3.42821C9.00756 2.95592 9.30982 2.28526 9.72544 2.03023C10.1505 1.77519 10.8684 1.77519 11.3596 2.03967ZM8.57305 4.4767C8.57305 4.51448 8.72418 4.75063 8.9131 4.99622L9.2437 5.43073L8.98866 5.53463C8.47859 5.72355 7.44899 6.47922 6.91058 7.06486C6.22103 7.81108 5.7204 8.65176 5.38035 9.63413L5.12531 10.3898L5.09698 15.2261L5.06864 20.0718H4.40743H3.75567V15.5945C3.75567 10.6826 3.8029 10.0875 4.31297 8.77456C4.96474 7.10264 6.34383 5.49685 7.82683 4.67506C8.34635 4.39169 8.57305 4.32557 8.57305 4.4767ZM17.0082 4.77897C18.6329 5.74244 19.8986 7.36713 20.522 9.2563C20.8715 10.3426 20.9471 11.5044 20.9471 15.9723V20.0718H20.2953H19.6341L19.6058 15.3205C19.568 10.7582 19.5586 10.5504 19.3602 9.88917C18.8029 8.04723 17.6127 6.56423 16.0164 5.71411L15.4685 5.42128L15.7991 4.98677C15.9786 4.75063 16.1297 4.51448 16.1297 4.4767C16.1297 4.31612 16.3659 4.40113 17.0082 4.77897ZM10.67 8.85957C9.84824 11.5044 8.90365 13.7242 7.7607 15.6511L7.21285 16.5768H6.5233H5.83375V14.187C5.83375 12.8741 5.88098 11.4477 5.93766 11.0132C6.06045 9.95529 6.47607 8.93514 7.0806 8.1228C7.56234 7.48992 8.6864 6.47922 8.74307 6.6398C8.75252 6.67758 8.59194 7.11209 8.38413 7.60327C8.17632 8.08501 8.0063 8.51952 8.0063 8.56675C8.0063 8.63287 8.67695 8.95403 8.71474 8.9068C8.73363 8.88791 9.00756 8.24559 9.32871 7.47103L9.9238 6.07305L10.5378 6.68703L11.1423 7.30101L10.67 8.85957ZM15.3646 7.49937C15.6858 8.25504 15.9597 8.87846 15.9786 8.89735C16.0164 8.94458 16.6965 8.65176 16.6965 8.58564C16.6965 8.53841 15.9503 6.75315 15.8747 6.63035C15.7424 6.40365 16.347 6.85705 16.9137 7.40491C17.6316 8.09446 18.1795 8.94458 18.5006 9.87028C18.7084 10.4465 18.7179 10.6637 18.7557 13.5258L18.784 16.5768H18.1322H17.471L16.8476 15.5094C15.6952 13.5164 14.6845 11.1171 13.9099 8.51952L13.551 7.30101L14.1555 6.69647C14.4767 6.36587 14.7601 6.11083 14.7695 6.12028C14.779 6.12972 15.0529 6.75315 15.3646 7.49937ZM7.25063 17.7103V17.9937H6.58942H5.92821V17.7103V17.427H6.58942H7.25063V17.7103ZM18.7746 17.7103V17.9937H18.1133H17.4521V17.7103V17.427H18.1133H18.7746V17.7103ZM7.54345 20.4874C7.85516 21.3564 8.10076 22.1121 8.10076 22.1593C8.10076 22.2065 7.60957 22.2443 7.01448 22.2443H5.92821V20.5441V18.8344L6.45718 18.8627L6.99559 18.8911L7.54345 20.4874ZM18.7746 20.5441V22.2443H17.6883C17.0932 22.2443 16.602 22.216 16.602 22.1782C16.602 22.1404 16.8476 21.3753 17.1404 20.478L17.6883 18.8438H18.2267H18.7746V20.5441ZM5.07809 21.5831V22.2443H4.41688H3.75567V21.5831V20.9219H4.41688H5.07809V21.5831ZM20.9282 21.5548L20.8999 22.1971L20.267 22.2254L19.6247 22.2538V21.5831V20.9219H20.2859H20.9565L20.9282 21.5548Z" fill="#FFC700"/>
<path d="M7.54351 9.61527C7.49628 9.72862 7.36403 10.0309 7.26013 10.2765C7.14678 10.5315 7.06177 10.7677 7.06177 10.8054C7.06177 10.8999 7.72298 11.1266 7.7891 11.0605C7.86466 10.9849 8.38419 9.74752 8.35585 9.71918C8.3464 9.70973 8.17638 9.63417 7.97801 9.54915C7.62852 9.40746 7.61907 9.40746 7.54351 9.61527Z" fill="#FFC700"/>
<path d="M16.6965 9.54909C16.517 9.62466 16.3658 9.70022 16.347 9.71912C16.3092 9.7569 16.7909 10.9376 16.8854 11.0415C16.9232 11.0793 17.1121 11.0604 17.301 10.9943C17.6883 10.8526 17.6883 10.8432 17.2726 9.94582L17.0271 9.4074L16.6965 9.54909Z" fill="#FFC700"/>
</svg>
